<svg width="1925" height="884" viewBox="0 0 1925 884" fill="none" xmlns="http://www.w3.org/2000/svg">
<g clip-path="url(#clip0_13365_261)">
<rect width="1925" height="884" fill="#F8F8F8"/>
<path d="M2272.09 1604.26C2270.99 1603.33 2270.88 1601.74 2271.81 1600.64C2271.91 1600.58 2272 1600.52 2272.15 1600.43L2229.37 1524.23C2226 1525.9 2221.84 1525.51 2218.79 1522.92C2217.66 1521.94 2216.82 1520.79 2216.26 1519.54L2173.56 1536.12C2174.58 1539.22 2174.02 1542.76 2171.77 1545.39C2168.27 1549.46 2162.17 1549.93 2158.13 1546.48C2154.7 1543.59 2153.88 1538.76 2155.77 1534.88L2154.24 1534.02C2154.24 1534.02 2153.97 1534.45 2153.79 1534.69C2151.42 1537.47 2147.25 1537.82 2144.45 1535.41C2141.84 1533.21 2141.42 1529.48 2143.24 1526.7L2104.74 1496.46C2101.56 1500.07 2096.06 1500.44 2092.38 1497.36C2091.66 1496.74 2091.06 1495.97 2090.59 1495.2L2043.78 1519.75C2045.26 1523.04 2044.88 1526.99 2042.4 1529.9C2039 1533.92 2032.94 1534.35 2028.93 1530.95C2024.92 1527.54 2024.43 1521.52 2027.89 1517.48C2030.88 1513.99 2035.78 1513.19 2039.65 1515.28L2081 1447.49C2081 1447.49 2080.78 1447.36 2080.68 1447.29C2078.62 1445.56 2078.18 1442.76 2079.23 1440.46L2023.53 1407.36C2023.53 1407.36 2023.26 1407.79 2023.1 1407.95C2021.31 1410.04 2018.56 1410.86 2016.04 1410.34L2005.77 1448.09C2006.61 1448.37 2007.38 1448.77 2008.1 1449.39C2011.12 1451.94 2011.51 1456.49 2008.91 1459.54C2006.37 1462.56 2001.78 1462.9 1998.76 1460.36C1995.74 1457.81 1995.4 1453.23 1997.95 1450.21C1998.63 1449.46 1999.39 1448.86 2000.24 1448.4L1932.29 1280.27C1930.33 1280.87 1928.1 1280.49 1926.43 1279.06C1923.79 1276.81 1923.53 1272.91 1925.73 1270.3C1926.14 1269.78 1926.65 1269.41 1927.18 1269.08L1857.57 1132.96C1854.28 1134.44 1850.29 1134.01 1847.38 1131.54C1843.34 1128.08 1842.84 1121.93 1846.3 1117.89C1846.3 1117.89 1846.34 1117.86 1846.39 1117.83L1768.74 1042.59C1765.61 1045.43 1760.81 1045.64 1757.49 1042.81C1754.72 1040.45 1753.89 1036.7 1755.09 1033.43L1571.85 953.649C1571.52 954.313 1571.14 954.881 1570.63 955.46C1567.39 959.303 1561.59 959.721 1557.74 956.48C1553.95 953.21 1553.48 947.44 1556.75 943.645C1559.05 940.977 1562.55 939.965 1565.75 940.738L1600.57 821.977C1599.55 821.606 1598.56 821.078 1597.63 820.317C1594.44 817.606 1593.63 813.241 1595.26 809.586L1487.74 754.189C1487.52 754.59 1487.22 754.973 1486.93 755.355C1483.89 758.875 1478.57 759.328 1475.05 756.289C1472.58 754.206 1471.7 751.019 1472.32 748.112L1404.32 728.851C1403.93 729.955 1403.35 730.972 1402.59 731.903C1399.26 735.806 1393.36 736.282 1389.46 732.945C1386.68 730.582 1385.69 726.997 1386.5 723.641L1378.49 721.213L1377.69 719.905L1386.77 722.674C1387.14 721.649 1387.67 720.661 1388.41 719.808C1389.8 718.161 1391.65 717.162 1393.61 716.766L1381.03 635.424C1378.83 635.637 1376.58 635.013 1374.77 633.46C1374.57 633.247 1374.41 633.083 1374.21 632.87L1341.54 660.752L1341.01 659.88L1373.53 632.087C1372.32 630.432 1371.75 628.518 1371.86 626.521L1316.61 619.961L1315.93 618.846L1372.01 625.566C1372.27 624.142 1372.84 622.793 1373.83 621.588C1374.97 620.293 1376.38 619.434 1377.89 618.974L1369.22 580.289C1366.64 580.739 1363.86 580.109 1361.71 578.228C1360.58 577.254 1359.79 576.072 1359.2 574.772L1313.8 591.073L1318.11 588.438L1358.86 573.782C1358.44 572.441 1358.37 571.02 1358.63 569.596L1351.46 567.99L1352.72 567.22L1358.83 568.611C1359.17 567.333 1359.79 566.159 1360.67 565.091C1364 561.188 1369.8 560.771 1373.68 564.06C1377 566.886 1377.75 571.485 1375.95 575.181L1449.24 616.824C1449.44 616.501 1449.65 616.179 1449.93 615.874C1453.1 612.138 1458.69 611.713 1462.38 614.916C1466.12 618.089 1466.54 623.685 1463.34 627.372C1463.16 627.617 1462.96 627.735 1462.75 627.932L1530.94 706.961C1534.24 704.412 1538.94 704.471 1542.23 707.248C1543.39 708.271 1544.24 709.549 1544.74 710.909L1599.85 693.526C1599.21 691.058 1599.77 688.385 1601.56 686.296C1604.45 682.865 1609.59 682.453 1613.05 685.394C1613.8 686.07 1614.37 686.786 1614.87 687.609L1672.55 659.611C1671.98 658.028 1672.16 656.255 1673.32 654.882C1675.06 652.823 1678.12 652.613 1680.13 654.379C1681.43 655.517 1681.9 657.159 1681.73 658.728L1791.73 686.722C1792.09 685.57 1792.7 684.397 1793.56 683.406C1796.96 679.396 1802.94 678.938 1806.9 682.372C1807.14 682.555 1807.29 682.798 1807.49 683.01L1957.17 552.738C1955 549.942 1955.03 545.861 1957.45 543.057C1959.35 540.831 1962.23 539.999 1964.9 540.562L1996.13 430.516C1995.1 430.145 1994.15 429.666 1993.26 428.875C1989.53 425.701 1989.1 420.106 1992.3 416.418C1995.48 412.683 2001.07 412.257 2004.76 415.46C2006.47 416.946 2007.48 418.924 2007.76 421.015L2007.85 420.956C2007.84 419.301 2008.41 417.621 2009.62 416.219C2012.26 413.14 2016.89 412.771 2019.97 415.414C2020.27 415.694 2020.61 416.022 2020.86 416.332L2098.92 360.707C2096.74 357.249 2096.89 352.7 2099.67 349.406C2099.77 349.346 2099.91 349.258 2099.98 349.15L1972.03 216.215C1970.04 217.76 1967.3 217.841 1965.34 216.172C1963.12 214.272 1962.86 210.905 1964.76 208.679C1965.17 208.159 1965.71 207.834 1966.19 207.538L1960.97 195.622L1961.84 195.09L1967.15 207.15C1968.86 206.571 1970.77 206.867 1972.25 208.092C1972.5 208.275 1972.55 208.576 1972.79 208.759L2134.1 97.0691C2133.83 96.6331 2133.57 96.1971 2133.4 95.7018L2113.75 102.318L2117.67 99.9198L2133.01 94.741C2132.64 93.371 2132.6 91.9984 2132.89 90.623L2144.42 83.5764C2145.62 83.9074 2146.81 84.443 2147.88 85.3204C2150.52 87.5677 2151.53 91.0747 2150.85 94.2157L2215.87 111.973C2216.12 111.289 2216.44 110.624 2216.95 110.045C2217.58 109.329 2218.33 108.807 2219.11 108.46L2198 50.8303L2198.87 50.2974L2220.07 108.073C2221.32 107.712 2222.7 107.798 2223.91 108.255L2271.22 6.01512L2272.77 5.06766L2224.81 108.638C2225.13 108.839 2225.46 109.041 2225.81 109.292C2226.97 110.314 2227.69 111.604 2227.88 113.014L2382.05 99.1758C2381.97 96.9661 2382.67 94.7402 2384.17 92.9557C2385.77 91.112 2387.93 90.0623 2390.18 89.8199L2383.29 -62.5454L2384.26 -63.1376L2391.22 89.7822C2392.37 89.8118 2393.51 90.046 2394.64 90.4846L2500.04 -127.376C2499.46 -127.682 2498.97 -128.049 2498.45 -128.463C2497.46 -129.322 2496.68 -130.377 2496.16 -131.453L2512.14 -141.224C2513.98 -138.756 2514.51 -135.615 2513.62 -132.813L2539.96 -122.823C2540.32 -123.644 2540.76 -124.446 2541.34 -125.132C2541.69 -125.544 2542.11 -125.937 2542.52 -126.252L2525.61 -149.455L2526.48 -149.988L2543.36 -126.833C2546.69 -129.002 2551.16 -128.873 2554.38 -126.115C2554.82 -125.719 2555.21 -125.294 2555.61 -124.869L2567.48 -133.32C2566.03 -135.694 2565.7 -138.622 2566.7 -141.23L2535.3 -155.376L2536.37 -156.028L2567.13 -142.159C2567.44 -142.746 2567.82 -143.314 2568.24 -143.833C2568.82 -144.519 2569.47 -144.982 2570.16 -145.475L2556.86 -168.552L2557.73 -169.084L2571.04 -146.008C2574.14 -147.572 2578.02 -147.214 2580.82 -144.802C2584.56 -141.629 2585.01 -135.985 2581.84 -132.249C2579.38 -129.415 2575.59 -128.43 2572.23 -129.571L2548.68 -70.3306C2549.42 -69.9861 2550.2 -69.5932 2550.83 -68.9849C2554.74 -65.6475 2555.21 -59.7505 2551.88 -55.8478C2548.54 -51.945 2542.64 -51.4685 2538.74 -54.8058C2535.22 -57.8444 2534.49 -62.8533 2536.81 -66.6699L2529.29 -71.7889C2529.29 -71.7889 2529.24 -71.7593 2529.2 -71.7297C2527.36 -69.6115 2524.29 -69.197 2521.95 -70.6287L2397.09 91.9838C2400.88 95.2538 2401.32 100.976 2398.08 104.819C2394.84 108.663 2389.04 109.08 2385.24 105.81C2384.42 105.116 2383.79 104.303 2383.3 103.401L2242.15 174.361C2243.28 177.068 2242.96 180.255 2240.92 182.57C2239.3 184.492 2236.93 185.407 2234.6 185.299L2216.75 363.291C2217.81 363.506 2218.87 363.926 2219.72 364.669C2222.39 366.965 2222.7 370.964 2220.41 373.632C2218.21 376.24 2214.34 376.544 2211.69 374.501L2156.07 435.045C2159.44 438.503 2159.7 443.935 2156.53 447.671C2153.24 451.544 2147.55 452.028 2143.59 448.925L2050.92 553.804C2053.67 556.577 2053.88 561.044 2051.33 564.064C2050.57 564.996 2049.58 565.666 2048.52 566.113L2082.48 662.938C2085.32 662.136 2088.52 662.704 2090.92 664.768C2094.76 668.009 2095.23 673.779 2091.94 677.653C2091.01 678.751 2089.88 679.51 2088.68 680.045C2089.7 680.417 2090.69 680.944 2091.54 681.687C2095.34 684.957 2095.82 690.65 2092.55 694.445C2091.16 696.092 2089.23 697.072 2087.33 697.438L2105.54 843.08C2107.46 842.966 2109.43 843.564 2110.96 844.885C2114.18 847.644 2114.54 852.481 2111.78 855.697C2110.3 857.403 2108.18 858.297 2106.1 858.373L2095.19 1074.18C2096.89 1074.34 2098.53 1075.06 2099.9 1076.22C2103.5 1079.28 2103.95 1084.59 2101.08 1088.28L2217.1 1190.58C2219.57 1188.2 2223.46 1188.02 2226.09 1190.27C2228.9 1192.68 2229.28 1196.91 2226.82 1199.74C2226.2 1200.46 2225.53 1201 2224.69 1201.37L2252.97 1270.73C2255.77 1269.75 2259 1270.24 2261.42 1272.35C2265.05 1275.46 2265.49 1280.98 2262.39 1284.6C2261.62 1285.54 2260.67 1286.25 2259.64 1286.75L2284.66 1345.12C2287.75 1343.96 2291.34 1344.5 2293.97 1346.74C2297.91 1350.13 2298.38 1356.03 2295.03 1360.01C2293.06 1362.34 2290.15 1363.46 2287.3 1363.27L2272.03 1494.63C2273.22 1494.84 2274.34 1495.35 2275.3 1496.16C2278.24 1498.69 2278.62 1503.12 2276.09 1506.06C2274.84 1507.49 2273.2 1508.29 2271.46 1508.49L2274.1 1600.03C2274.54 1600.1 2274.96 1600.24 2275.29 1600.57C2276.39 1601.5 2276.5 1603.09 2275.58 1604.19C2274.65 1605.29 2273.05 1605.4 2271.96 1604.47L2272.09 1604.26ZM2154.69 1533.01L2156.22 1533.87C2156.44 1533.47 2156.73 1533.09 2157.03 1532.71C2160.49 1528.67 2166.59 1528.2 2170.68 1531.62C2171.8 1532.6 2172.64 1533.75 2173.21 1535L2215.91 1518.42C2215.91 1518.42 2215.77 1517.97 2215.7 1517.75L2155.35 1529.41C2155.48 1530.6 2155.3 1531.84 2154.79 1532.95L2154.69 1533.01ZM2148.06 1523.69C2149.8 1523.49 2151.58 1524 2153.01 1525.25C2154.08 1526.13 2154.74 1527.32 2155.1 1528.57L2215.49 1516.88C2215.14 1514.23 2215.85 1511.47 2217.7 1509.27C2217.87 1509.11 2218.03 1508.94 2218.19 1508.77L2132.62 1415.35C2131.64 1416.14 2130.44 1416.68 2129.29 1416.98L2148.11 1523.66L2148.06 1523.69ZM2188.66 1332.72L2132.93 1402.58C2133.68 1403.25 2134.25 1403.97 2134.7 1404.82L2262.44 1345.45C2261.8 1343.85 2261.55 1342.14 2261.84 1340.43L2201.06 1328.2C2200.75 1329.33 2200.23 1330.44 2199.4 1331.35C2196.68 1334.54 2192.02 1335.06 2188.63 1332.68L2188.66 1332.72ZM2039.63 1259.05L2039.44 1294.03C2041.11 1294.14 2042.74 1294.74 2044.11 1295.9C2046.2 1297.68 2047.11 1300.26 2046.92 1302.77L2185.42 1324.39C2185.54 1323.92 2185.65 1323.45 2185.87 1323.05L2046.99 1254.55C2046.7 1255.06 2046.38 1255.52 2045.99 1255.96C2044.32 1257.91 2042.01 1258.92 2039.67 1259.02L2039.63 1259.05ZM2109.25 1313.52L2046.72 1303.75C2046.42 1305 2045.91 1306.24 2045 1307.26C2044.82 1307.51 2044.58 1307.66 2044.37 1307.85L2122.26 1401.98C2125.16 1399.88 2129.05 1399.83 2132.06 1401.91L2187.78 1332.06C2185.85 1330.31 2184.93 1327.82 2185.15 1325.35L2109.17 1313.5L2109.25 1313.52ZM2037.72 1310.05L2019.49 1396.05C2020.45 1396.33 2021.41 1396.81 2022.23 1397.5C2023.91 1398.94 2024.75 1400.96 2024.79 1402.99L2118.89 1407.9C2119.08 1406.26 2119.74 1404.72 2120.85 1403.38C2121.03 1403.13 2121.32 1402.96 2121.5 1402.71L2043.61 1308.58C2041.86 1309.85 2039.76 1310.34 2037.72 1310.05ZM2135.09 1405.78C2136.2 1408.57 2135.76 1411.89 2133.73 1414.34C2133.58 1414.42 2133.47 1414.56 2133.35 1414.7L2218.93 1508.12C2221.21 1506.2 2224.22 1505.56 2227.04 1506.16L2268.38 1351.14C2267.23 1350.78 2266.06 1350.17 2265.07 1349.31C2264.1 1348.5 2263.39 1347.54 2262.81 1346.49L2135.07 1405.86L2135.09 1405.78ZM2105.3 1495.52L2143.83 1525.81C2144.72 1524.86 2145.83 1524.18 2147.03 1523.85L2146.9 1523.2L2128.16 1417.2C2127.06 1417.35 2125.92 1417.24 2124.88 1416.95L2101.43 1482.45C2102.25 1482.81 2103.02 1483.21 2103.74 1483.83C2107.23 1486.82 2107.79 1491.87 2105.2 1495.58L2105.3 1495.52ZM2040.45 1515.72C2040.7 1515.91 2040.99 1516.06 2041.27 1516.29C2042.09 1516.99 2042.72 1517.8 2043.25 1518.67L2090.07 1494.12C2088.69 1491.1 2089.04 1487.43 2091.38 1484.73C2092.42 1483.5 2093.78 1482.67 2095.19 1482.14L2085.46 1448.36C2084.25 1448.57 2082.96 1448.42 2081.85 1447.9L2040.5 1515.69L2040.45 1515.72ZM2088.69 1446.58C2088.07 1447.3 2087.27 1447.85 2086.41 1448.18L2093.5 1472.85L2096.14 1481.96C2097.59 1481.6 2099.15 1481.65 2100.61 1482.09L2123.21 1418.9L2124.01 1416.62C2123.27 1416.27 2122.5 1415.88 2121.81 1415.3C2121.53 1415.07 2121.28 1414.76 2121.05 1414.5L2089.14 1439.79C2090.49 1441.89 2090.44 1444.65 2088.72 1446.63L2088.69 1446.58ZM2024.04 1406.45L2079.71 1439.5C2079.71 1439.5 2079.86 1439.21 2079.98 1439.07C2082.04 1436.68 2085.66 1436.39 2088.05 1438.46C2088.14 1438.6 2088.36 1438.74 2088.45 1438.88L2120.36 1413.59C2119.38 1412.19 2118.88 1410.5 2118.86 1408.85L2024.77 1403.94C2024.69 1404.79 2024.4 1405.63 2024.01 1406.4L2024.04 1406.45ZM1933.25 1279.88L2001.2 1448.02C2002.37 1447.64 2003.59 1447.56 2004.81 1447.81L2015.07 1410.06C2014.23 1409.78 2013.43 1409.34 2012.67 1408.74C2009.59 1406.1 2009.19 1401.42 2011.88 1398.31C2012.18 1397.93 2012.56 1397.56 2012.91 1397.28L1939.46 1288.52L1933.49 1279.73C1933.49 1279.73 1933.34 1279.82 1933.25 1279.88ZM1935.18 1278.36C1934.9 1278.67 1934.67 1278.94 1934.33 1279.15L2013.76 1396.7C2015.16 1395.84 2016.84 1395.54 2018.44 1395.76L2036.68 1309.76C2035.56 1309.44 2034.52 1308.95 2033.56 1308.14C2031.31 1306.19 2030.37 1303.24 2030.9 1300.51L1936.26 1276.31C1936.04 1277.04 1935.64 1277.69 1935.15 1278.31L1935.18 1278.36ZM1936.61 1275.36L2031.25 1299.57C2031.57 1298.57 2032.08 1297.66 2032.83 1296.81C2034.31 1295.1 2036.4 1294.16 2038.5 1294.01L2038.68 1259.03C2036.81 1258.91 2034.99 1258.22 2033.48 1256.95C2032.08 1255.74 2031.16 1254.24 2030.69 1252.6L1936.68 1273.52C1936.78 1274.12 1936.79 1274.79 1936.64 1275.41L1936.61 1275.36ZM1934.49 1269.6C1935.42 1270.37 1936.04 1271.38 1936.39 1272.5L2030.45 1251.55C2030.17 1249.79 2030.4 1247.98 2031.18 1246.31L1958.55 1206.52C1958.4 1206.82 1958.22 1207.06 1957.98 1207.34C1956.1 1209.48 1953.34 1210.31 1950.72 1209.71L1932.81 1268.5C1933.42 1268.73 1934.04 1269.08 1934.56 1269.5L1934.49 1269.6ZM2040.1 1219.97L2041.33 1143.49C2039.43 1143.32 2037.57 1142.66 2035.95 1141.32C2035.57 1141.02 2035.25 1140.62 2034.97 1140.26L1958.51 1198.5C1959.59 1200.17 1959.94 1202.15 1959.53 1203.99L2033.91 1224.55C2034.18 1223.79 2034.57 1223.01 2035.18 1222.37C2036.45 1220.86 2038.22 1220.05 2040.1 1219.97ZM2034.32 1139.53C2032.07 1136.17 2032.14 1131.61 2034.92 1128.31C2035.02 1128.25 2035.11 1128.19 2035.18 1128.09L1964.14 1055.39C1962.9 1056.41 1961.44 1056.97 1959.91 1056.97L1953.21 1195.28C1954.62 1195.42 1956 1196.04 1957.13 1197.01C1957.4 1197.24 1957.63 1197.5 1957.86 1197.77L2034.32 1139.53ZM1959.32 1205.06C1959.32 1205.06 1959.18 1205.48 1959.04 1205.69L1967.73 1210.43L2031.72 1245.45C2031.97 1245.1 2032.19 1244.7 2032.47 1244.39C2034.2 1242.33 2036.72 1241.33 2039.24 1241.32L2039.67 1233.87C2038.36 1233.67 2037.12 1233.17 2036.02 1232.24C2034.04 1230.52 2033.29 1227.99 2033.74 1225.58L1959.37 1205.03L1959.32 1205.06ZM1858.52 1132.45L1928.13 1268.57C1929.32 1268.11 1930.58 1268 1931.8 1268.25L1949.7 1209.47C1948.94 1209.2 1948.22 1208.78 1947.53 1208.2C1944.62 1205.72 1944.16 1201.48 1946.26 1198.4L1860.9 1130.46C1860.17 1131.24 1859.36 1131.87 1858.49 1132.4L1858.52 1132.45ZM1861.84 1119.04C1863.82 1122.29 1863.8 1126.49 1861.49 1129.7L1946.86 1197.63C1948.26 1196.11 1950.2 1195.26 1952.14 1195.27L1958.84 1056.96C1957.55 1056.82 1956.28 1056.26 1955.22 1055.39C1954.91 1055.11 1954.61 1054.83 1954.35 1054.52L1861.79 1119.07L1861.84 1119.04ZM1769.51 1041.79L1847.15 1117.11C1850.71 1113.8 1856.17 1113.59 1859.99 1116.78C1860.51 1117.19 1860.93 1117.67 1861.33 1118.22L1953.9 1053.66C1953.25 1052.6 1952.94 1051.45 1952.91 1050.2L1771.48 1037.39C1771.26 1038.99 1770.65 1040.49 1769.51 1041.79ZM1771.52 1036.37L1953.03 1049.2C1953.21 1047.96 1953.74 1046.77 1954.57 1045.73C1955.55 1044.6 1956.79 1043.91 1958.11 1043.57L1944.14 963.008C1942.8 963.097 1941.41 962.68 1940.31 961.754C1939.79 961.34 1939.47 960.807 1939.14 960.274L1771.04 1033.4C1771.38 1034.39 1771.56 1035.34 1771.55 1036.42L1771.52 1036.37ZM1770.57 1032.42L1938.68 959.294C1938.13 957.634 1938.35 955.704 1939.6 954.272C1939.76 954.105 1939.94 954.065 1940.1 953.898L1921.98 930.237L1910.02 914.589C1906.96 916.659 1902.83 916.527 1899.88 914C1899.75 913.884 1899.63 913.691 1899.49 913.575L1769.63 1031C1769.98 1031.45 1770.35 1031.96 1770.55 1032.5L1770.57 1032.42ZM1921.57 776.047L1920.29 771.442C1918.24 771.897 1916.03 771.652 1914.08 770.645L1869.83 848.39C1869.83 848.39 1870.16 848.592 1870.29 848.708L1918.11 791.607C1914.51 788.218 1914.13 782.593 1917.37 778.749C1918.48 777.406 1919.98 776.488 1921.54 775.999L1921.57 776.047ZM1899 902.098C1899.28 901.794 1899.59 901.539 1899.82 901.264L1871.17 864.407L1870.03 862.975C1866.81 865.212 1862.41 865.102 1859.26 862.44C1858.33 861.678 1857.61 860.72 1857.14 859.741L1786.26 890.748C1786.69 891.884 1786.86 893.042 1786.82 894.269L1897.07 906.136C1897.3 904.663 1897.93 903.285 1898.92 902.08L1899 902.098ZM1910.55 900.962L1913.29 897.824L1936.6 871.401C1934.98 869.73 1934.26 867.574 1934.33 865.402L1877.73 857.937L1873.69 857.415C1873.38 858.868 1872.78 860.295 1871.79 861.5C1871.51 861.805 1871.15 862.09 1870.87 862.394L1899.8 899.609L1900.63 900.634C1903.59 898.624 1907.6 898.64 1910.55 900.962ZM1856.83 858.799C1856.1 856.847 1856.05 854.686 1856.82 852.684L1721.17 793.924C1720.86 794.51 1720.52 795.049 1720.11 795.568C1719.64 796.117 1719.12 796.569 1718.54 796.925L1773.89 886.068C1777.03 884.348 1781 884.647 1783.84 887.107C1784.72 887.898 1785.49 888.827 1785.98 889.855L1856.83 858.799ZM1857.2 851.785C1857.51 851.198 1857.86 850.581 1858.38 850.003C1859.23 849.012 1860.29 848.234 1861.44 847.728L1803.74 698.543C1800.87 699.501 1797.56 698.993 1795.02 697.017L1719.55 784.199C1721.91 786.546 1722.66 789.948 1721.57 792.947L1857.25 851.755L1857.2 851.785ZM1809.1 694.137L1910.64 756.846C1910.82 756.601 1910.97 756.308 1911.16 756.063C1911.9 755.21 1912.76 754.55 1913.63 754.017L1886.4 699.992C1883.87 701.074 1880.86 700.718 1878.6 698.77C1876.93 697.333 1876.02 695.295 1876.02 693.231L1829.98 691.289L1810.19 690.476C1810.09 691.733 1809.71 692.963 1809.1 694.137ZM1887.57 686.768C1887.87 686.922 1888.14 687.153 1888.38 687.336C1888.77 687.635 1889.05 687.993 1889.34 688.351L1998.55 612.16C1996.41 608.672 1996.53 604.075 1999.39 600.799C1999.78 600.358 2000.21 599.965 2000.62 599.65L1967.44 554.514C1965.21 555.876 1962.43 556.113 1960.02 554.994L1948.66 575.71L1887.54 686.72L1887.57 686.768ZM1902.53 680.424L1889.97 689.164C1891.06 690.956 1891.32 693.126 1890.73 695.088L1911.69 702.707C1911.98 701.993 1912.39 701.347 1912.9 700.769C1915.66 697.552 1920.38 697.124 1923.69 699.697L1999.97 613.95C1999.67 613.67 1999.36 613.39 1999.11 613.081L1902.48 680.454L1902.53 680.424ZM1911.36 703.703L1890.4 696.083C1890.08 696.748 1889.77 697.335 1889.29 697.962C1888.76 698.619 1888.06 699.112 1887.38 699.526L1914.61 753.552C1915.72 753.075 1916.82 752.803 1917.98 752.755L1918.41 713.704C1916.79 713.561 1915.19 713.01 1913.89 711.871C1911.47 709.758 1910.64 706.542 1911.44 703.721L1911.36 703.703ZM1808.48 694.979C1808.3 695.224 1808.15 695.518 1807.96 695.763C1807.04 696.861 1805.89 697.698 1804.65 698.185L1862.36 847.37C1864.51 846.652 1866.87 846.808 1868.97 847.852L1913.22 770.107C1912.87 769.857 1912.49 769.685 1912.16 769.356C1908.7 766.414 1907.87 761.465 1909.99 757.64L1808.45 694.931L1808.48 694.979ZM1871.09 849.354C1873.11 851.246 1874.05 853.867 1873.8 856.411L1934.45 864.398C1934.67 863.13 1935.25 861.908 1936.13 860.839C1937.17 859.604 1938.48 858.805 1939.9 858.404L1925.88 793.978C1923.47 794.387 1920.92 793.814 1918.82 792.234L1871.01 849.335L1871.09 849.354ZM1940.96 858.288C1943.1 857.978 1945.36 858.525 1947.18 860.078C1948.41 861.119 1949.21 862.427 1949.64 863.894L1972.42 859.025C1972.16 857.186 1972.66 855.283 1973.93 853.773C1974.16 853.499 1974.38 853.302 1974.64 853.076L1961.78 835.848L1929.66 792.661C1928.79 793.194 1927.97 793.698 1927.05 793.929L1941.07 858.355L1940.96 858.288ZM1949.8 864.798C1950.11 866.938 1949.56 869.202 1948.05 870.986C1947.82 871.261 1947.56 871.487 1947.3 871.713L1956.02 882.821C1958.81 880.85 1962.48 880.538 1965.55 881.983L1975.36 863.616C1975.36 863.616 1974.82 863.28 1974.57 863.097C1973.55 862.19 1972.87 861.075 1972.49 859.91L1949.72 864.78L1949.8 864.798ZM1954.27 884.422C1954.57 884.04 1954.93 883.754 1955.28 883.469L1946.57 872.362C1943.85 874.224 1940.17 874.205 1937.42 872.095L1911.37 901.657C1912.23 902.526 1912.89 903.592 1913.31 904.728L1952.32 892.997C1951.62 890.101 1952.22 886.941 1954.33 884.519L1954.27 884.422ZM1913.55 905.651C1914.14 908.148 1913.59 910.948 1911.76 913.066C1911.48 913.37 1911.15 913.704 1910.84 913.959L1923.8 930.924L1940.89 953.22C1942 952.539 1943.25 952.304 1944.52 952.528L1958.53 899.782C1957.38 899.422 1956.26 898.778 1955.22 897.949C1953.92 896.811 1952.99 895.387 1952.48 893.901L1913.47 905.632L1913.55 905.651ZM1764.43 1027.92C1765.9 1028.16 1767.33 1028.75 1768.56 1029.79C1768.7 1029.9 1768.82 1030.1 1768.96 1030.21L1898.81 912.792C1897.47 911.147 1896.92 909.156 1897 907.11L1891.24 906.505L1786.75 895.243C1786.5 896.794 1785.86 898.25 1784.77 899.515C1782.88 901.662 1780.24 902.677 1777.63 902.543L1764.42 1027.8L1764.43 1027.92ZM1572.27 952.594L1755.51 1032.38C1755.81 1031.79 1756.15 1031.25 1756.61 1030.7C1758.4 1028.62 1760.94 1027.66 1763.47 1027.78L1776.69 902.521C1775.14 902.271 1773.63 901.66 1772.37 900.57C1771.07 899.432 1770.24 898.075 1769.71 896.541L1572.64 947.644C1572.98 949.297 1572.82 950.992 1572.27 952.594ZM1566.76 940.856C1567.78 941.227 1568.77 941.755 1569.62 942.498C1570.97 943.607 1571.89 945.109 1572.37 946.672L1769.44 895.569C1769.1 893.917 1769.26 892.221 1769.89 890.639L1611.76 817.533C1611.45 818.12 1611.07 818.688 1610.66 819.207C1608.36 821.875 1604.8 822.916 1601.6 822.144L1566.79 940.905L1566.76 940.856ZM1612.11 816.586L1770.24 889.691C1770.5 889.134 1770.92 888.615 1771.28 888.125C1771.79 887.546 1772.36 887.064 1772.92 886.66L1717.57 797.517C1714.62 799.118 1710.85 798.828 1708.19 796.532C1706.89 795.393 1706 793.94 1705.51 792.376L1612.6 811.83C1612.84 813.415 1612.65 815.062 1612.04 816.567L1612.11 816.586ZM1604.48 804.087C1606.3 804.237 1608.11 804.924 1609.62 806.197C1611.1 807.421 1612.03 809.05 1612.52 810.818L1705.48 791.335C1705.16 789.068 1705.72 786.727 1707.29 784.835L1613.44 697.466C1611.98 698.889 1610.03 699.616 1608.07 699.681L1604.49 804.009L1604.48 804.087ZM1712.58 781.938L1706.61 699.549C1704.7 699.584 1702.79 698.957 1701.25 697.636C1699.54 696.15 1698.55 694.094 1698.44 691.962L1615.95 692.206C1615.84 693.872 1615.24 695.504 1614.16 696.895L1707.98 784.216C1709.27 782.959 1710.89 782.235 1712.61 781.987L1712.58 781.938ZM1401.6 718.736C1404.3 721.081 1405.31 724.588 1404.64 727.855L1472.63 746.99C1472.98 746.043 1473.46 745.084 1474.16 744.261C1474.5 743.849 1474.86 743.564 1475.24 743.2L1423.52 670.873C1421.29 672.235 1418.62 672.666 1416.16 671.907L1399.29 717.353C1400.11 717.716 1400.91 718.158 1401.63 718.785L1401.6 718.736ZM1394.61 716.554C1395.87 716.446 1397.08 716.573 1398.28 716.904L1415.19 671.506C1414.4 671.191 1413.64 670.72 1412.96 670.141C1409.22 666.968 1408.79 661.372 1411.97 657.637L1408.7 654.576L1386.03 633.163C1384.9 634.254 1383.53 634.956 1382.06 635.26L1394.64 716.602L1394.61 716.554ZM1448.81 617.753L1375.47 576.139C1375.22 576.492 1375.05 576.863 1374.77 577.167C1373.51 578.599 1371.91 579.576 1370.22 580.077L1373.4 594.307L1378.89 618.761C1381.26 618.382 1383.75 618.985 1385.71 620.653C1387.35 622.042 1388.28 624.002 1388.55 625.966L1447.88 621.782C1447.84 620.41 1448.13 619.034 1448.76 617.783L1448.81 617.753ZM1447.97 622.794L1394.44 626.561L1388.69 626.949C1388.68 628.887 1388.08 630.849 1386.79 632.437L1412.72 656.91C1415.93 653.885 1420.9 653.639 1424.4 656.425L1450.48 627.779C1449.09 626.369 1448.27 624.603 1448.01 622.765L1447.97 622.794ZM1529.63 708.296C1529.63 708.296 1530.06 707.903 1530.27 707.706L1462.07 628.678C1458.92 631.138 1454.38 631.116 1451.13 628.514L1425.05 657.16C1427.51 659.652 1428.25 663.259 1427.04 666.394L1433.39 669.166L1528.41 710.107C1528.73 709.442 1529.12 708.874 1529.55 708.277L1529.63 708.296ZM1528.66 718.47C1527.4 716.182 1527.14 713.477 1528.06 711.054L1426.63 667.371C1426.31 668.036 1425.92 668.604 1425.46 669.153C1425.11 669.565 1424.69 669.958 1424.28 670.273L1461.68 722.541L1476 742.6C1479.06 740.735 1483.04 740.829 1485.95 743.308C1486.47 743.722 1486.92 744.244 1487.3 744.748L1528.63 718.421L1528.66 718.47ZM1529.2 719.342L1487.86 745.668C1489.12 747.956 1489.28 750.72 1488.21 753.105L1595.73 808.501C1596 808.07 1596.32 807.61 1596.66 807.198C1597.08 806.679 1597.55 806.256 1598.1 805.853L1541.09 721.718C1537.9 723.672 1533.7 723.443 1530.68 720.897C1530.13 720.434 1529.65 719.864 1529.24 719.312L1529.2 719.342ZM1600.22 694.565L1545.1 711.948C1545.77 714.669 1545.21 717.672 1543.24 720.006C1542.83 720.525 1542.35 720.948 1541.85 721.322L1598.86 805.457C1600.21 804.628 1601.81 804.186 1603.39 804.154L1606.97 699.826C1605.35 699.684 1603.77 699.054 1602.47 697.915C1601.4 697.038 1600.69 695.875 1600.2 694.643L1600.22 694.565ZM1673.93 661.762C1673.52 661.414 1673.28 661.027 1673.05 660.639L1615.34 688.589C1615.68 689.375 1615.88 690.25 1615.96 691.135L1698.45 690.891C1698.54 689.176 1699.16 687.467 1700.36 686.065C1700.53 685.898 1700.64 685.761 1700.81 685.594L1679.8 661.899C1678.05 663.169 1675.66 663.169 1673.9 661.713L1673.93 661.762ZM1791.51 687.785L1681.56 659.762C1681.35 660.289 1681.11 660.768 1680.71 661.21C1680.67 661.239 1680.62 661.269 1680.57 661.298L1701.51 684.897C1704.47 682.555 1708.81 682.569 1711.83 685.115C1713.53 686.6 1714.49 688.608 1714.67 690.632L1791.35 689.15C1791.38 688.663 1791.42 688.176 1791.5 687.659L1791.51 687.785ZM1791.32 690.299L1714.64 691.781C1714.58 693.544 1713.96 695.253 1712.74 696.734C1711.4 698.351 1709.54 699.224 1707.65 699.512L1713.65 781.949C1715.43 781.925 1717.24 782.485 1718.81 783.65L1794.29 696.468C1792.54 694.807 1791.54 692.625 1791.42 690.367L1791.32 690.299ZM1808.22 683.764C1809.51 685.438 1810.18 687.419 1810.18 689.483L1876.04 692.286C1876.22 690.843 1876.77 689.447 1877.81 688.211C1880.05 685.573 1883.72 684.93 1886.69 686.308L1959.24 554.601C1958.92 554.399 1958.63 554.245 1958.35 554.014C1958.19 553.85 1958.1 553.704 1957.93 553.54L1808.25 683.812L1808.22 683.764ZM1965.97 540.777C1966.81 541.062 1967.69 541.522 1968.4 542.15C1970.35 543.818 1971.22 546.216 1971.06 548.574L2038.06 557.6C2038.32 556.38 2038.85 555.188 2039.68 554.149C2040.49 553.188 2041.48 552.518 2042.57 552.12L2001.42 430.678C2000.05 431.049 1998.57 431.022 1997.14 430.761L1965.92 540.807L1965.97 540.777ZM2017.29 427.9L2044.33 551.638C2045.84 551.382 2047.39 551.632 2048.75 552.332L2122.41 423.41C2122.08 423.209 2121.76 423.007 2121.46 422.727C2119.61 421.125 2118.56 418.972 2118.35 416.773L2022.52 421.109C2022.5 422.716 2021.95 424.317 2020.79 425.69C2019.82 426.818 2018.61 427.558 2017.27 427.978L2017.29 427.9ZM2008.02 421.987L2007.92 422.046C2007.92 424.11 2007.25 426.18 2005.8 427.935C2004.82 429.063 2003.64 429.851 2002.36 430.368L2043 550.324L2016.24 428.142C2014.22 428.441 2012.12 427.932 2010.44 426.495C2009.04 425.289 2008.27 423.699 2007.97 422.016L2008.02 421.987ZM2021.43 417.048C2022 417.968 2022.37 419.007 2022.45 420.019L2118.28 415.683C2118.32 413.667 2118.98 411.598 2120.42 409.921C2121.39 408.793 2122.62 407.975 2123.95 407.428L2109.53 364.672C2106.57 365.484 2103.28 364.898 2100.78 362.766C2100.34 362.371 2099.87 361.927 2099.52 361.472L2021.48 417.018L2021.43 417.048ZM2110.47 364.362L2124.94 407.089C2125.96 406.798 2127 406.761 2128.03 406.801L2132.85 370.918C2131.47 370.627 2130.12 370.054 2129.02 369.128C2126.66 367.112 2125.76 364.004 2126.28 361.156L2116.06 358.484C2115.7 359.636 2115.06 360.761 2114.28 361.77C2113.24 363.005 2111.96 363.853 2110.55 364.381L2110.47 364.362ZM2113.16 348.283C2115.9 350.598 2116.94 354.153 2116.23 357.45L2126.45 360.122C2126.77 359.127 2127.3 358.139 2128.04 357.286C2129.2 355.913 2130.73 355.044 2132.4 354.621L2111.59 242.176C2111.59 242.176 2111.04 242.249 2110.7 242.252L2107.71 346.02C2109.66 346.159 2111.56 346.865 2113.13 348.234L2113.16 348.283ZM2166.51 180.801L2158.35 190.313C2159.45 191.365 2160.19 192.576 2160.57 193.946L2167.09 192.423L2227 178.633C2226.94 178.205 2226.9 177.825 2226.89 177.368L2181.06 174.567C2180.85 176.292 2180.15 177.982 2178.93 179.463C2175.76 183.199 2170.32 183.662 2166.48 180.752L2166.51 180.801ZM2168.4 165.273L2144.55 100.996C2144.15 101.106 2143.72 101.168 2143.33 101.278L2152.21 188.006C2154.09 187.923 2156.02 188.472 2157.63 189.686L2165.79 180.174C2162.3 176.852 2161.96 171.402 2165.13 167.666C2166.06 166.568 2167.19 165.809 2168.44 165.244L2168.4 165.273ZM2146.62 202.269L2117.51 227.911C2120.06 231.211 2120.08 235.924 2117.27 239.17C2116.97 239.552 2116.66 239.808 2116.31 240.093L2212.11 364.195C2212.35 364.047 2212.65 363.87 2212.89 363.722L2154.91 204.392C2152.24 205.154 2149.27 204.642 2147.04 202.742C2146.88 202.578 2146.71 202.414 2146.54 202.25L2146.62 202.269ZM1972.86 215.507L2100.75 348.345C2102.43 346.851 2104.56 346.084 2106.72 346.028L2109.71 242.26C2107.94 242.079 2106.15 241.442 2104.72 240.187C2102.46 238.239 2101.38 235.375 2101.68 232.597L1974 213.346C1973.81 214.126 1973.46 214.869 1972.93 215.526L1972.86 215.507ZM2139.38 101.028C2138.1 100.678 2136.93 100.065 2135.86 99.1873C2135.39 98.7432 2134.95 98.3475 2134.57 97.8442L1973.36 209.475C1973.9 210.347 1974.03 211.33 1973.96 212.304L2101.72 231.575C2102.01 230.199 2102.63 228.821 2103.62 227.615C2105.71 225.145 2108.83 224.165 2111.78 224.628L2138.01 106.522L2139.25 101.039L2139.38 101.028ZM2112.92 224.862C2114.12 225.193 2115.26 225.758 2116.28 226.665C2116.45 226.829 2116.65 227.042 2116.81 227.206L2145.92 201.563C2143.49 198.457 2143.53 194.046 2146.14 190.918C2147.51 189.349 2149.26 188.41 2151.2 188.092L2142.26 101.394C2141.63 101.448 2140.99 101.375 2140.32 101.254L2112.84 224.843L2112.92 224.862ZM2217.34 118.524C2215.81 116.998 2215.15 114.939 2215.57 112.89L2150.6 95.1039C2150.26 96.1779 2149.68 97.1952 2148.87 98.1561C2147.94 99.2542 2146.76 100.043 2145.51 100.608L2169.36 164.886C2172.04 164.046 2175.06 164.528 2177.48 166.309L2217.34 118.524ZM2178.19 166.937C2180.08 168.713 2181.1 171.149 2181.08 173.622L2226.91 176.423C2227.11 174.902 2227.71 173.476 2228.75 172.24C2229.84 170.975 2231.19 170.146 2232.66 169.715L2222.46 120.254C2220.92 120.461 2219.41 120.055 2218.06 119.151L2178.19 166.937ZM2539.53 -121.894L2513.14 -131.855C2512.78 -131.034 2512.34 -130.232 2511.71 -129.516C2510.67 -128.28 2509.39 -127.432 2507.98 -126.905L2523.58 -80.808C2524.73 -81.1095 2525.94 -80.983 2527.02 -80.5147L2543.47 -111.195C2543.04 -111.465 2542.64 -111.685 2542.27 -112.062C2539.36 -114.541 2538.37 -118.457 2539.48 -121.864L2539.53 -121.894ZM2547.67 -70.7801L2571.22 -130.02C2570.48 -130.365 2569.84 -130.769 2569.18 -131.299C2568.77 -131.646 2568.37 -132.071 2568.03 -132.526L2556.11 -124.045C2558.23 -120.683 2558.07 -116.261 2555.36 -113.074C2553.48 -110.927 2550.87 -109.863 2548.27 -109.871L2545.83 -71.1838C2546.47 -71.1111 2547.1 -70.9604 2547.7 -70.7316L2547.67 -70.7801ZM2529.8 -72.6987L2537.32 -67.5797C2537.32 -67.5797 2537.47 -67.873 2537.59 -68.0102C2539.44 -70.2066 2542.13 -71.2509 2544.73 -71.243L2545.36 -80.8785L2547.22 -109.96C2546.24 -110.03 2545.3 -110.383 2544.45 -110.794L2527.95 -80.0841C2527.95 -80.0841 2528.35 -79.8634 2528.52 -79.6992C2530.58 -77.9633 2531.06 -74.9973 2529.77 -72.7471L2529.8 -72.6987ZM2521.13 -71.3231C2518.94 -73.3793 2518.68 -76.7464 2520.64 -79.08C2521.17 -79.7367 2521.9 -80.1808 2522.61 -80.5469L2507.01 -126.644C2504.97 -126.062 2502.79 -126.259 2500.84 -127.061L2395.48 90.7699C2395.48 90.7699 2395.94 91.0875 2396.19 91.2705L2521.07 -71.42L2521.13 -71.3231ZM2382.79 102.451C2382.47 101.714 2382.25 100.917 2382.11 100.139L2227.94 113.977C2227.91 115.458 2227.48 116.922 2226.48 118.128C2225.67 119.089 2224.61 119.74 2223.49 120.09L2223.92 122.092L2233.74 169.522C2235.88 169.212 2238.22 169.777 2239.96 171.311C2240.64 171.89 2241.17 172.636 2241.61 173.362L2382.79 102.451ZM2233.52 185.162C2232.12 184.949 2230.77 184.376 2229.65 183.402C2228.41 182.36 2227.61 181.052 2227.21 179.634L2160.86 194.966C2161.24 197.329 2160.71 199.846 2158.99 201.827C2158.14 202.817 2157.05 203.547 2155.9 204.053L2213.88 363.382C2214.45 363.232 2215.08 363.178 2215.7 363.202L2233.55 185.21L2233.52 185.162ZM2210.71 365.385C2210.71 365.385 2211.09 365.022 2211.3 364.825L2115.49 240.723C2114.57 241.285 2113.62 241.799 2112.57 242.042L2133.38 354.486C2135.65 354.166 2137.97 354.809 2139.82 356.411C2141.8 358.128 2142.74 360.545 2142.74 362.94L2209.34 368.483C2209.53 367.371 2210 366.287 2210.79 365.404L2210.71 365.385ZM2209.22 369.487L2142.62 363.944C2142.42 365.465 2141.78 366.921 2140.74 368.156C2138.96 370.245 2136.36 371.23 2133.77 371.018L2128.95 406.901C2130.45 407.181 2131.91 407.821 2133.15 408.863C2133.94 409.509 2134.49 410.303 2134.99 411.126L2209.66 371.947C2209.32 371.161 2209.19 370.305 2209.2 369.438L2209.22 369.487ZM2210.92 373.777C2210.66 373.468 2210.4 373.158 2210.23 372.867L2135.56 412.047C2136.99 415.161 2136.55 418.894 2134.23 421.639C2134.05 421.884 2133.76 422.062 2133.55 422.258L2143.62 434.066C2147.02 431.457 2151.89 431.476 2155.26 434.273L2210.84 373.758L2210.92 373.777ZM2142.77 448.231C2139.26 444.783 2138.94 439.255 2142.21 435.46C2142.4 435.215 2142.69 435.037 2142.87 434.792L2132.79 422.985C2130.06 425.052 2126.35 425.394 2123.29 423.871L2049.63 552.792C2049.63 552.792 2049.95 552.994 2050.06 553.062L2142.74 448.182L2142.77 448.231ZM2037.9 558.633L1970.9 549.608C1970.67 550.875 1970.14 552.068 1969.23 553.088C1968.95 553.392 1968.62 553.726 1968.31 553.981L1988.17 581.036L2001.46 599.069C2004.74 596.929 2009.07 596.942 2012.39 599.31L2040.32 564.67C2038.56 563.088 2037.78 560.835 2037.9 558.633ZM2081.46 663.229L2047.5 566.403C2045.38 566.966 2043.04 566.605 2041.14 565.238L2013.15 599.908C2016.85 603.237 2017.4 608.822 2014.45 612.819L2078.2 665.417C2079.11 664.397 2080.23 663.716 2081.43 663.181L2081.46 663.229ZM2081.99 680.207C2080.96 679.836 2079.97 679.308 2079.04 678.546C2075.41 675.44 2074.85 670.06 2077.64 666.23L2013.88 613.632L2079.81 681.539C2080.49 680.92 2081.22 680.476 2082.01 680.129L2081.99 680.207ZM2078.77 682.57C2078.77 682.57 2078.97 682.452 2079.03 682.344L2013.11 614.437C2009.65 617.483 2004.44 617.672 2000.78 614.722L1924.49 700.47C1925.69 701.667 1926.37 703.113 1926.66 704.668L2076.61 688.946C2076.53 686.737 2077.2 684.462 2078.75 682.648L2078.77 682.57ZM2076.72 689.88L1926.69 705.584C1926.77 707.462 1926.17 709.424 1924.83 711.042C1923.35 712.748 1921.36 713.631 1919.25 713.785L1918.88 752.806C1920.88 752.916 1922.8 753.67 1924.42 755.01C1925.41 755.869 1926.16 756.875 1926.73 757.922L2077.17 691.6C2076.97 691.057 2076.82 690.483 2076.72 689.88ZM2077.61 692.531L1927.2 758.902C1928.38 762.038 1927.92 765.644 1925.61 768.39C1924.45 769.762 1922.95 770.68 1921.39 771.17L1922.59 775.756C1925.37 775.188 1928.28 775.807 1930.61 777.775C1931.27 778.305 1931.81 778.972 1932.23 779.651L2077.67 692.628C2077.67 692.628 2077.64 692.58 2077.61 692.531ZM2079.78 695.328C2079.17 694.768 2078.66 694.149 2078.2 693.5L1932.76 780.523C1934.49 783.79 1934.15 787.922 1931.61 790.941C1931.26 791.353 1930.85 791.668 1930.48 792.032L1975.45 852.446C1977.49 851.203 1980 851.066 1982.13 852.158L2080.44 695.858C2080.44 695.858 2080.01 695.589 2079.76 695.406L2079.78 695.328ZM2100.09 845.607C2101.25 844.234 2102.81 843.413 2104.46 843.069L2086.29 697.476C2084.56 697.597 2082.88 697.231 2081.3 696.396L1982.94 852.726C1982.94 852.726 1983.19 852.909 1983.29 852.976C1984.59 854.115 1985.35 855.579 1985.59 857.164L2098.24 850.53C2098.25 848.796 2098.84 847.039 2100.05 845.637L2100.09 845.607ZM2098.33 851.542L1985.67 858.176C1985.65 859.657 1985.16 861.151 1984.07 862.416C1982.1 864.749 1978.92 865.301 1976.3 864.173L1966.49 882.54C1966.92 882.809 1967.36 883.079 1967.77 883.426C1969.14 884.583 1970.06 886.085 1970.58 887.697L2098.34 852.204C2098.34 852.204 2098.23 851.805 2098.23 851.601L2098.33 851.542ZM2099.26 854.368C2099.02 853.98 2098.83 853.563 2098.69 853.116L1970.89 888.639C1971.48 891.468 1970.91 894.55 1968.84 896.942C1966.48 899.717 1962.92 900.759 1959.58 900.076L1945.52 952.851C1946.09 953.031 1946.68 953.338 1947.12 953.734C1947.4 953.965 1947.5 954.237 1947.72 954.498L2099.24 854.446L2099.26 854.368ZM2104.99 858.187C2103.54 858.004 2102.12 857.412 2100.91 856.419C2100.5 856.072 2100.11 855.646 2099.79 855.24L1948.37 955.233C1949.28 956.939 1949.15 959.014 1948.02 960.64L2087.79 1076.77C2089.47 1074.94 2091.79 1074.06 2094.11 1074.04L2105.02 858.235L2104.99 858.187ZM2087.12 1077.51L1947.42 961.404C1946.76 962.072 1945.96 962.497 1945.11 962.747L1959.06 1043.39C1960.83 1043.24 1962.66 1043.72 1964.17 1044.99C1966.09 1046.61 1966.83 1049.02 1966.49 1051.29L1968.83 1051.86L2085.76 1080.2C2086.07 1079.29 2086.53 1078.41 2087.15 1077.56L2087.12 1077.51ZM2085.57 1081.19L1966.24 1052.31C1965.96 1053.15 1965.52 1053.95 1964.94 1054.63C1964.94 1054.63 1964.89 1054.66 1964.84 1054.69L2035.88 1127.39C2039.33 1124.42 2044.44 1124.29 2048.01 1127.3C2048.07 1127.4 2048.1 1127.45 2048.13 1127.49L2087.57 1088.49C2085.79 1086.45 2085.07 1083.75 2085.54 1081.14L2085.57 1081.19ZM2216.38 1191.15L2100.36 1088.85C2097.15 1092.08 2092 1092.36 2088.46 1089.4C2088.43 1089.35 2088.37 1089.26 2088.34 1089.21L2048.9 1128.22C2051.01 1130.59 2051.72 1133.81 2050.88 1136.79L2215.59 1192.57C2215.83 1192.09 2216.07 1191.61 2216.38 1191.15ZM2215.23 1193.51L2050.48 1137.77C2050.13 1138.71 2049.64 1139.55 2048.99 1140.34C2047.25 1142.4 2044.77 1143.45 2042.31 1143.56L2041.12 1220.01C2042.53 1220.14 2043.9 1220.64 2045.03 1221.61C2046.15 1222.59 2046.92 1223.85 2047.25 1225.25L2215.08 1195.87C2215.01 1195.11 2215.08 1194.34 2215.26 1193.56L2215.23 1193.51ZM2047.43 1226.2C2047.61 1228.02 2047.11 1229.92 2045.84 1231.43C2044.47 1233 2042.58 1233.82 2040.67 1233.86L2040.28 1241.28C2042.01 1241.49 2043.67 1242.14 2045.07 1243.35C2046.3 1244.39 2047.1 1245.7 2047.6 1247.06L2213.5 1197.1L2047.51 1226.22L2047.43 1226.2ZM2219.82 1201.56C2218.93 1201.3 2218.13 1200.86 2217.36 1200.27C2216.51 1199.52 2215.87 1198.58 2215.5 1197.54L2047.81 1248.06C2048.28 1249.9 2048.11 1251.8 2047.34 1253.6L2186.25 1322.15C2186.52 1321.72 2186.79 1321.29 2187.09 1320.91C2188.99 1318.68 2191.77 1317.78 2194.43 1318.22L2219.72 1201.62L2219.82 1201.56ZM2248.59 1283.59C2246.46 1280.43 2246.58 1276.16 2249.18 1273.11C2249.99 1272.15 2250.94 1271.44 2252.02 1270.91L2223.74 1201.56C2222.8 1201.87 2221.79 1201.95 2220.78 1201.83L2195.49 1318.43C2196.61 1318.75 2197.6 1319.27 2198.53 1320.03C2198.84 1320.31 2199.09 1320.62 2199.4 1320.9L2248.64 1283.56L2248.59 1283.59ZM2257.36 1287.27C2254.85 1287.74 2252.23 1287.15 2250.14 1285.37C2249.76 1285.07 2249.47 1284.71 2249.22 1284.4L2200.03 1321.72C2201.11 1323.38 2201.59 1325.36 2201.34 1327.24L2255.14 1338.07L2262.11 1339.47C2262.45 1338.06 2263.1 1336.73 2264.13 1335.58C2265.35 1334.1 2266.95 1333.12 2268.69 1332.59L2257.46 1287.22L2257.36 1287.27ZM2280.8 1347.61C2281.66 1346.62 2282.63 1345.82 2283.76 1345.27L2258.73 1286.9C2258.73 1286.9 2258.49 1287.05 2258.36 1287.06L2269.54 1332.46C2272.35 1331.95 2275.34 1332.58 2277.62 1334.58C2281.36 1337.75 2282.02 1343.07 2279.48 1347.09L2280.57 1347.89C2280.57 1347.89 2280.68 1347.75 2280.75 1347.64L2280.8 1347.61ZM2286.36 1362.91C2284.73 1362.64 2283.19 1361.98 2281.82 1360.83C2278.22 1357.77 2277.58 1352.58 2280.05 1348.67L2278.96 1347.87C2278.96 1347.87 2278.87 1348.06 2278.78 1348.12C2276.94 1350.23 2274.44 1351.36 2271.9 1351.45L2271.39 1492.16L2286.4 1362.88L2286.36 1362.91ZM2265.46 1496.72C2266.73 1495.21 2268.5 1494.4 2270.35 1494.27L2270.86 1351.49C2270.37 1351.46 2269.93 1351.39 2269.41 1351.31L2228 1506.31C2229.15 1506.67 2230.28 1507.31 2231.32 1508.14C2232.61 1509.28 2233.52 1510.65 2234.06 1512.19L2263.92 1502.92C2263.44 1500.82 2263.91 1498.54 2265.41 1496.75L2265.46 1496.72ZM2270.47 1508.3C2268.96 1508.22 2267.44 1507.69 2266.2 1506.65C2265.32 1505.86 2264.65 1504.87 2264.23 1503.86L2234.36 1513.13C2235.1 1516.07 2234.48 1519.31 2232.35 1521.81C2231.68 1522.56 2230.91 1523.16 2230.17 1523.68L2272.97 1599.93C2272.97 1599.93 2273.07 1599.87 2273.12 1599.84L2270.47 1508.3Z" fill="#E0E2E1"/>
<g clip-path="url(#clip1_13365_261)">
<path d="M-347.091 -720.257C-345.993 -719.331 -345.883 -717.735 -346.808 -716.637C-346.905 -716.578 -347.002 -716.519 -347.147 -716.43L-304.372 -640.232C-300.997 -641.895 -296.836 -641.51 -293.787 -638.916C-292.659 -637.942 -291.822 -636.79 -291.257 -635.538L-248.556 -652.119C-249.585 -655.217 -249.02 -658.756 -246.772 -661.394C-243.271 -665.464 -237.169 -665.932 -233.129 -662.479C-229.697 -659.586 -228.879 -654.763 -230.766 -650.881L-229.24 -650.017C-229.24 -650.017 -228.97 -650.448 -228.787 -650.693C-226.424 -653.468 -222.25 -653.823 -219.445 -651.412C-216.837 -649.213 -216.417 -645.477 -218.245 -642.697L-179.739 -612.464C-176.555 -616.073 -171.057 -616.44 -167.38 -613.363C-166.664 -612.736 -166.064 -611.972 -165.59 -611.197L-118.778 -635.747C-120.255 -639.036 -119.878 -642.993 -117.4 -645.905C-113.995 -649.915 -107.942 -650.354 -103.932 -646.949C-99.9211 -643.545 -99.4338 -637.521 -102.887 -633.481C-105.877 -629.99 -110.778 -629.191 -114.651 -631.282L-155.999 -563.493C-155.999 -563.493 -155.784 -563.359 -155.676 -563.291C-153.617 -561.555 -153.176 -558.764 -154.228 -556.457L-98.532 -523.356C-98.532 -523.356 -98.2629 -523.787 -98.0987 -523.954C-96.3143 -526.042 -93.5555 -526.863 -91.0389 -526.339L-80.7719 -564.087C-81.6116 -564.372 -82.384 -564.765 -83.1 -565.392C-86.1199 -567.938 -86.5076 -572.492 -83.9131 -575.542C-81.367 -578.562 -76.7834 -578.901 -73.7635 -576.355C-70.7435 -573.809 -70.4043 -569.225 -72.9504 -566.205C-73.626 -565.46 -74.3903 -564.86 -75.2435 -564.405L-7.28717 -396.266C-5.32507 -396.866 -3.10193 -396.495 -1.42511 -395.058C1.21265 -392.81 1.46844 -388.908 -0.730469 -386.3C-1.14496 -385.78 -1.64819 -385.406 -2.18109 -385.08L67.4324 -248.962C70.7214 -250.44 74.7075 -250.015 77.6198 -247.536C81.6598 -244.083 82.1578 -237.933 78.7047 -233.893C78.7047 -233.893 78.6563 -233.863 78.6078 -233.834L156.265 -158.592C159.387 -161.432 164.186 -161.636 167.51 -158.811C170.285 -156.448 171.114 -152.696 169.913 -149.433L353.152 -69.6486C353.478 -70.3134 353.863 -70.8812 354.374 -71.46C357.615 -75.3035 363.415 -75.7209 367.258 -72.4805C371.054 -69.2104 371.519 -63.4398 368.249 -59.6448C365.953 -56.9774 362.447 -55.9653 359.246 -56.7377L324.429 62.0228C325.455 62.3942 326.443 62.9217 327.374 63.6833C330.561 66.3936 331.366 70.7592 329.74 74.4142L437.256 129.811C437.477 129.41 437.775 129.027 438.074 128.645C441.113 125.125 446.426 124.672 449.946 127.711C452.417 129.794 453.3 132.981 452.681 135.888L520.679 155.149C521.07 154.045 521.646 153.028 522.407 152.097C525.745 148.194 531.642 147.718 535.544 151.055C538.319 153.418 539.313 157.003 538.503 160.359L546.507 162.787L547.307 164.095L538.228 161.326C537.857 162.351 537.329 163.339 536.586 164.192C535.198 165.839 533.346 166.838 531.392 167.234L543.974 248.576C546.173 248.363 548.418 248.987 550.232 250.54C550.428 250.753 550.595 250.917 550.791 251.13L583.457 223.248L583.99 224.12L551.47 251.913C552.681 253.568 553.252 255.482 553.141 257.479L608.387 264.039L609.068 265.154L552.993 258.434C552.732 259.858 552.159 261.207 551.166 262.412C550.027 263.707 548.622 264.566 547.107 265.026L555.777 303.711C558.364 303.261 561.144 303.891 563.292 305.772C564.42 306.746 565.209 307.928 565.803 309.228L611.203 292.927L606.891 295.562L566.143 310.218C566.562 311.559 566.632 312.98 566.371 314.404L573.542 316.01L572.282 316.78L566.175 315.389C565.825 316.667 565.211 317.841 564.334 318.909C560.997 322.812 555.197 323.229 551.323 319.94C547.999 317.114 547.251 312.515 549.052 308.819L475.758 267.176C475.557 267.499 475.355 267.821 475.075 268.126C471.902 271.862 466.306 272.287 462.619 269.084C458.883 265.911 458.457 260.315 461.66 256.628C461.843 256.383 462.037 256.265 462.249 256.068L394.056 177.039C390.756 179.588 386.062 179.529 382.768 176.752C381.61 175.729 380.762 174.451 380.265 173.091L325.146 190.474C325.789 192.942 325.227 195.615 323.442 197.704C320.549 201.135 315.411 201.547 311.95 198.606C311.204 197.93 310.633 197.214 310.13 196.391L252.449 224.389C253.017 225.972 252.837 227.745 251.68 229.118C249.944 231.177 246.878 231.387 244.868 229.621C243.573 228.483 243.102 226.841 243.274 225.272L133.275 197.278C132.914 198.43 132.3 199.603 131.442 200.594C128.037 204.604 122.062 205.062 118.1 201.628C117.855 201.445 117.707 201.202 117.511 200.99L-32.1736 331.262C-29.9988 334.058 -30.0337 338.139 -32.4452 340.943C-34.3453 343.169 -37.2306 344.001 -39.9033 343.438L-71.1299 453.484C-70.1045 453.855 -69.1463 454.334 -68.2634 455.125C-64.5276 458.299 -64.1022 463.894 -67.3049 467.582C-70.4781 471.317 -76.0737 471.743 -79.7612 468.54C-81.4677 467.054 -82.477 465.076 -82.757 462.985L-82.8539 463.044C-82.8404 464.699 -83.4109 466.379 -84.6166 467.781C-87.2596 470.86 -91.8917 471.229 -94.9708 468.586C-95.275 468.306 -95.6088 467.978 -95.8644 467.668L-173.924 523.293C-171.744 526.751 -171.892 531.3 -174.67 534.594C-174.767 534.654 -174.912 534.742 -174.979 534.85L-47.025 667.785C-45.0414 666.24 -42.2961 666.159 -40.3447 667.828C-38.1188 669.728 -37.8576 673.095 -39.7577 675.321C-40.1722 675.841 -40.7051 676.166 -41.1896 676.462L-35.9705 688.378L-36.8426 688.91L-42.1504 676.85C-43.8595 677.429 -45.7705 677.133 -47.2509 675.908C-47.4958 675.725 -47.547 675.424 -47.7919 675.241L-209.099 786.931C-208.832 787.367 -208.566 787.803 -208.396 788.298L-188.751 781.682L-192.675 784.08L-208.008 789.259C-207.637 790.629 -207.596 792.002 -207.887 793.377L-219.417 800.424C-220.618 800.093 -221.81 799.557 -222.879 798.68C-225.516 796.432 -226.529 792.925 -225.853 789.784L-290.869 772.027C-291.117 772.711 -291.442 773.376 -291.954 773.955C-292.581 774.671 -293.326 775.193 -294.112 775.54L-272.999 833.17L-273.871 833.703L-295.073 775.927C-296.317 776.288 -297.7 776.202 -298.911 775.745L-346.22 877.985L-347.77 878.932L-299.81 775.362C-300.133 775.161 -300.456 774.959 -300.809 774.708C-301.966 773.686 -302.688 772.396 -302.884 770.986L-457.052 784.824C-456.966 787.034 -457.669 789.26 -459.173 791.044C-460.775 792.888 -462.928 793.938 -465.175 794.18L-458.295 946.545L-459.264 947.138L-466.217 794.218C-467.366 794.188 -468.507 793.954 -469.64 793.515L-575.045 1011.38C-574.458 1011.68 -573.968 1012.05 -573.449 1012.46C-572.458 1013.32 -571.68 1014.38 -571.155 1015.45L-587.143 1025.22C-588.984 1022.76 -589.506 1019.61 -588.623 1016.81L-614.957 1006.82C-615.32 1007.64 -615.762 1008.45 -616.34 1009.13C-616.688 1009.54 -617.113 1009.94 -617.519 1010.25L-600.611 1033.45L-601.483 1033.99L-618.362 1010.83C-621.694 1013 -626.164 1012.87 -629.381 1010.11C-629.822 1009.72 -630.215 1009.29 -630.608 1008.87L-642.477 1017.32C-641.026 1019.69 -640.701 1022.62 -641.702 1025.23L-610.3 1039.38L-611.366 1040.03L-642.133 1026.16C-642.439 1026.75 -642.824 1027.31 -643.239 1027.83C-643.817 1028.52 -644.466 1028.98 -645.163 1029.48L-631.858 1052.55L-632.73 1053.08L-646.035 1030.01C-649.138 1031.57 -653.017 1031.21 -655.822 1028.8C-659.557 1025.63 -660.012 1019.99 -656.839 1016.25C-654.379 1013.42 -650.589 1012.43 -647.231 1013.57L-623.681 954.331C-624.424 953.986 -625.197 953.593 -625.835 952.985C-629.737 949.648 -630.214 943.751 -626.877 939.848C-623.539 935.945 -617.642 935.469 -613.739 938.806C-610.219 941.844 -609.487 946.853 -611.812 950.67L-604.292 955.789C-604.292 955.789 -604.244 955.759 -604.195 955.73C-602.362 953.611 -599.289 953.197 -596.95 954.629L-472.087 792.016C-475.882 788.746 -476.318 783.024 -473.078 779.181C-469.837 775.337 -464.037 774.92 -460.242 778.19C-459.419 778.884 -458.789 779.697 -458.304 780.599L-317.153 709.639C-318.276 706.932 -317.961 703.745 -315.915 701.43C-314.295 699.508 -311.927 698.593 -309.598 698.701L-291.75 520.709C-292.813 520.494 -293.868 520.074 -294.722 519.331C-297.389 517.035 -297.704 513.036 -295.408 510.368C-293.209 507.76 -289.336 507.456 -286.69 509.499L-231.067 448.955C-234.445 445.497 -234.703 440.065 -231.53 436.329C-228.241 432.456 -222.549 431.972 -218.589 435.075L-125.916 330.196C-128.674 327.423 -128.876 322.956 -126.33 319.936C-125.569 319.004 -124.581 318.334 -123.523 317.887L-157.479 221.062C-160.316 221.864 -163.524 221.296 -165.917 219.232C-169.76 215.991 -170.226 210.221 -166.937 206.347C-166.011 205.249 -164.878 204.49 -163.675 203.955C-164.701 203.583 -165.688 203.056 -166.542 202.313C-170.337 199.043 -170.821 193.35 -167.551 189.555C-166.162 187.908 -164.233 186.928 -162.327 186.562L-180.536 40.9205C-182.463 41.0336 -184.425 40.4361 -185.965 39.1146C-189.181 36.3559 -189.542 31.5193 -186.783 28.303C-185.298 26.5966 -183.182 25.7029 -181.099 25.6274L-170.19 -190.177C-171.886 -190.338 -173.528 -191.065 -174.9 -192.222C-178.499 -195.28 -178.951 -200.593 -176.08 -204.277L-292.099 -306.578C-294.572 -304.202 -298.456 -304.024 -301.094 -306.271C-303.898 -308.683 -304.283 -312.906 -301.824 -315.74C-301.196 -316.456 -300.529 -316.997 -299.695 -317.374L-327.973 -386.727C-330.77 -385.75 -333.997 -386.24 -336.419 -388.353C-340.047 -391.459 -340.492 -396.976 -337.386 -400.605C-336.624 -401.536 -335.666 -402.255 -334.638 -402.75L-359.662 -461.117C-362.749 -459.962 -366.337 -460.498 -368.975 -462.745C-372.907 -466.131 -373.383 -472.028 -370.027 -476.009C-368.06 -478.342 -365.148 -479.457 -362.303 -479.266L-347.035 -610.633C-348.224 -610.837 -349.338 -611.354 -350.299 -612.164C-353.241 -614.691 -353.618 -619.119 -351.091 -622.06C-349.837 -623.492 -348.198 -624.295 -346.456 -624.494L-349.102 -716.034C-349.54 -716.099 -349.96 -716.241 -350.294 -716.57C-351.392 -717.496 -351.502 -719.092 -350.576 -720.19C-349.651 -721.288 -348.055 -721.398 -346.956 -720.472L-347.091 -720.257ZM-229.689 -649.011L-231.215 -649.875C-231.436 -649.474 -231.735 -649.091 -232.033 -648.709C-235.486 -644.669 -241.588 -644.201 -245.676 -647.624C-246.804 -648.598 -247.641 -649.75 -248.206 -651.002L-290.907 -634.421C-290.907 -634.421 -290.767 -633.975 -290.697 -633.751L-230.351 -645.412C-230.478 -646.599 -230.303 -647.837 -229.786 -648.951L-229.689 -649.011ZM-223.06 -639.688C-224.801 -639.488 -226.577 -640 -228.009 -641.254C-229.078 -642.131 -229.74 -643.323 -230.101 -644.567L-290.495 -632.876C-290.142 -630.231 -290.85 -627.469 -292.702 -625.273C-292.866 -625.106 -293.03 -624.939 -293.194 -624.772L-207.618 -531.347C-206.641 -532.144 -205.438 -532.679 -204.292 -532.981L-223.108 -639.658L-223.06 -639.688ZM-263.656 -448.725L-207.933 -518.579C-208.679 -519.254 -209.249 -519.97 -209.704 -520.823L-337.444 -461.454C-336.798 -459.853 -336.55 -458.141 -336.838 -456.434L-276.064 -444.203C-275.752 -445.325 -275.235 -446.44 -274.395 -447.352C-271.685 -450.539 -267.015 -451.064 -263.626 -448.677L-263.656 -448.725ZM-114.626 -375.049L-114.444 -410.028C-116.11 -410.141 -117.741 -410.741 -119.114 -411.898C-121.202 -413.682 -122.109 -416.256 -121.916 -418.769L-260.423 -440.387C-260.536 -439.918 -260.649 -439.45 -260.87 -439.049L-121.99 -370.549C-121.702 -371.057 -121.384 -371.518 -120.989 -371.959C-119.32 -373.91 -117.011 -374.922 -114.675 -375.019L-114.626 -375.049ZM-184.246 -429.518L-121.719 -419.755C-121.418 -421.003 -120.912 -422.244 -120.005 -423.264C-119.822 -423.509 -119.58 -423.657 -119.367 -423.854L-197.256 -517.984C-200.16 -515.877 -204.055 -515.825 -207.061 -517.914L-262.784 -448.06C-260.852 -446.313 -259.926 -443.818 -260.149 -441.353L-184.168 -429.499L-184.246 -429.518ZM-112.724 -426.05L-94.4863 -512.055C-95.4526 -512.329 -96.4108 -512.808 -97.2344 -513.503C-98.9113 -514.94 -99.7457 -516.958 -99.7915 -518.993L-193.886 -523.903C-194.077 -522.256 -194.737 -520.721 -195.846 -519.378C-196.029 -519.133 -196.319 -518.956 -196.502 -518.711L-118.613 -424.58C-116.861 -425.851 -114.762 -426.335 -112.724 -426.05ZM-210.092 -521.784C-211.195 -524.57 -210.765 -527.894 -208.73 -530.335C-208.585 -530.424 -208.469 -530.561 -208.353 -530.699L-293.929 -624.124C-296.211 -622.196 -299.215 -621.558 -302.044 -622.159L-343.381 -467.141C-342.229 -466.78 -341.056 -466.167 -340.065 -465.308C-339.104 -464.498 -338.386 -463.54 -337.812 -462.493L-210.073 -521.862L-210.092 -521.784ZM-180.296 -611.525L-218.831 -641.806C-219.719 -640.864 -220.834 -640.183 -222.029 -639.852L-221.897 -639.2L-203.164 -533.204C-202.055 -533.35 -200.925 -533.242 -199.88 -532.949L-176.431 -598.45C-177.252 -598.813 -178.025 -599.206 -178.74 -599.833C-182.231 -602.823 -182.789 -607.872 -180.2 -611.584L-180.296 -611.525ZM-115.453 -631.723C-115.698 -631.906 -115.992 -632.06 -116.266 -632.291C-117.09 -632.986 -117.72 -633.798 -118.253 -634.67L-165.065 -610.12C-163.687 -607.103 -164.037 -603.429 -166.381 -600.732C-167.423 -599.497 -168.779 -598.668 -170.187 -598.14L-160.456 -564.362C-159.25 -564.567 -157.964 -564.422 -156.85 -563.905L-115.502 -631.694L-115.453 -631.723ZM-163.694 -562.583C-163.067 -563.299 -162.273 -563.851 -161.409 -564.179L-168.504 -588.855L-171.14 -597.957C-172.588 -597.605 -174.146 -597.65 -175.61 -598.086L-198.212 -534.9L-199.011 -532.615C-198.268 -532.271 -197.496 -531.878 -196.809 -531.299C-196.535 -531.068 -196.279 -530.758 -196.053 -530.497L-164.135 -555.792C-165.486 -557.894 -165.441 -560.65 -163.724 -562.631L-163.694 -562.583ZM-99.0406 -522.446L-154.707 -555.499C-154.707 -555.499 -154.86 -555.206 -154.976 -555.069C-157.04 -552.676 -160.661 -552.393 -163.053 -554.458C-163.142 -554.603 -163.357 -554.737 -163.446 -554.883L-195.364 -529.587C-194.379 -528.193 -193.878 -526.503 -193.865 -524.848L-99.77 -519.938C-99.6893 -520.786 -99.4041 -521.625 -99.0111 -522.398L-99.0406 -522.446ZM-8.24805 -395.878L-76.2043 -564.017C-77.3698 -563.638 -78.5864 -563.559 -79.8056 -563.812L-90.0727 -526.064C-89.233 -525.779 -88.4309 -525.337 -87.6665 -524.74C-84.5873 -522.097 -84.1888 -517.416 -86.8802 -514.308C-87.179 -513.925 -87.5558 -513.562 -87.9138 -513.277L-14.4629 -404.523L-8.4903 -395.73C-8.4903 -395.73 -8.34497 -395.819 -8.24805 -395.878ZM-10.1832 -394.363C-9.90326 -394.667 -9.67175 -394.942 -9.33264 -395.149L-88.7563 -512.695C-90.1612 -511.837 -91.8433 -511.541 -93.4421 -511.761L-111.68 -425.757C-110.558 -425.445 -109.522 -424.947 -108.561 -424.137C-106.305 -422.188 -105.366 -419.235 -105.899 -416.514L-11.257 -392.309C-11.0391 -393.042 -10.6353 -393.688 -10.1536 -394.315L-10.1832 -394.363ZM-11.6096 -391.362L-106.251 -415.567C-106.574 -414.571 -107.083 -413.661 -107.826 -412.808C-109.311 -411.102 -111.397 -410.16 -113.499 -410.006L-113.681 -375.027C-111.811 -374.906 -109.994 -374.22 -108.484 -372.947C-107.082 -371.741 -106.164 -370.239 -105.693 -368.598L-11.6822 -389.521C-11.7845 -390.124 -11.7899 -390.786 -11.6392 -391.411L-11.6096 -391.362ZM-9.48853 -385.605C-10.4198 -386.367 -11.0416 -387.384 -11.3915 -388.501L-105.451 -367.548C-105.173 -365.788 -105.402 -363.984 -106.177 -362.313L-33.5516 -322.524C-33.3983 -322.817 -33.2152 -323.062 -32.9838 -323.337C-31.1025 -325.484 -28.3437 -326.305 -25.7195 -325.713L-7.81445 -384.499C-8.42004 -384.728 -9.03638 -385.083 -9.55585 -385.497L-9.48853 -385.605ZM-115.096 -335.969L-116.332 -259.49C-114.432 -259.32 -112.567 -258.663 -110.949 -257.323C-110.567 -257.024 -110.252 -256.618 -109.967 -256.26L-33.5057 -314.5C-34.5905 -316.167 -34.9377 -318.15 -34.534 -319.994L-108.911 -340.547C-109.178 -339.785 -109.571 -339.013 -110.179 -338.375C-111.452 -336.865 -113.218 -336.052 -115.096 -335.969ZM-109.318 -255.525C-107.071 -252.174 -107.141 -247.607 -109.918 -244.312C-110.015 -244.253 -110.112 -244.194 -110.179 -244.086L-39.1354 -171.391C-37.8973 -172.414 -36.4413 -172.971 -34.9125 -172.974L-28.2114 -311.281C-29.6245 -311.416 -31.0026 -312.038 -32.1303 -313.012C-32.4048 -313.244 -32.6309 -313.505 -32.8571 -313.766L-109.318 -255.525ZM-34.3187 -321.057C-34.3187 -321.057 -34.1761 -321.477 -34.0415 -321.692L-42.7271 -326.432L-106.716 -361.452C-106.966 -361.099 -107.186 -360.698 -107.466 -360.394C-109.202 -358.335 -111.716 -357.331 -114.238 -357.32L-114.674 -349.867C-113.358 -349.674 -112.117 -349.168 -111.019 -348.242C-109.038 -346.525 -108.287 -343.989 -108.744 -341.58L-34.3671 -321.027L-34.3187 -321.057ZM66.4823 -248.448L-3.13123 -384.566C-4.31549 -384.109 -5.58051 -384.001 -6.79974 -384.254L-24.7048 -325.469C-23.9431 -325.202 -23.2191 -324.779 -22.5327 -324.201C-19.6205 -321.722 -19.1574 -317.48 -21.2648 -314.396L64.1031 -246.462C64.8271 -247.237 65.6399 -247.867 66.5119 -248.4L66.4823 -248.448ZM63.164 -235.042C61.1803 -238.288 61.2044 -242.495 63.5056 -245.698L-21.8622 -313.631C-23.2618 -312.111 -25.2023 -311.257 -27.1402 -311.271L-33.8413 -172.963C-32.5548 -172.818 -31.2844 -172.263 -30.2158 -171.386C-29.9117 -171.106 -29.6075 -170.826 -29.3519 -170.516L63.2125 -235.071L63.164 -235.042ZM155.492 -157.787L77.8542 -233.107C74.2881 -229.796 68.827 -229.586 65.0131 -232.778C64.4937 -233.193 64.0711 -233.667 63.6674 -234.218L-28.897 -169.663C-28.2456 -168.597 -27.9442 -167.451 -27.9145 -166.205L153.522 -153.39C153.743 -154.988 154.354 -156.493 155.492 -157.787ZM153.482 -152.367L-28.0329 -165.201C-28.2078 -163.963 -28.7433 -162.77 -29.5723 -161.731C-30.5466 -160.604 -31.7874 -159.912 -33.1089 -159.57L-19.1407 -79.0084C-17.7977 -79.0973 -16.4116 -78.6803 -15.3134 -77.7544C-14.794 -77.34 -14.4683 -76.807 -14.1426 -76.274L153.964 -149.401C153.625 -150.391 153.441 -151.344 153.452 -152.415L153.482 -152.367ZM154.429 -148.421L-13.6769 -75.2943C-13.1279 -73.6337 -13.3458 -71.7039 -14.6 -70.272C-14.7642 -70.1051 -14.9391 -70.0647 -15.1033 -69.8978L3.01642 -46.2374L14.9752 -30.5894C18.0353 -32.6592 22.1748 -32.5273 25.1167 -30.0001C25.254 -29.8844 25.3724 -29.6907 25.5096 -29.575L155.366 -146.997C155.021 -147.452 154.647 -147.955 154.448 -148.499L154.429 -148.421ZM3.42664 107.953L4.71069 112.558C6.7616 112.103 8.97394 112.348 10.9199 113.355L55.1662 35.6097C55.1662 35.6097 54.8432 35.4078 54.7059 35.2921L6.89294 92.3933C10.4943 95.7818 10.8712 101.407 7.63074 105.251C6.52191 106.594 5.02002 107.512 3.4563 108.001L3.42664 107.953ZM26.0025 -18.0984C25.7226 -17.7942 25.413 -17.5386 25.1816 -17.264L53.8281 19.5927L54.9694 21.0245C58.1937 18.7878 62.5862 18.8979 65.7435 21.5598C66.6747 22.3215 67.3934 23.2797 67.859 24.2594L138.739 -6.74841C138.311 -7.88428 138.136 -9.04163 138.184 -10.2689L27.9268 -22.1356C27.6954 -20.6633 27.0737 -19.2854 26.0806 -18.0796L26.0025 -18.0984ZM14.4533 -16.9623L11.7134 -13.824L-11.5969 12.599C-9.97656 14.2704 -9.25793 16.4263 -9.32782 18.5984L47.2691 26.0631L51.3145 26.5852C51.624 25.1318 52.2161 23.7053 53.2092 22.4995C53.4891 22.1953 53.847 21.91 54.1269 21.6058L25.1951 -15.6088L24.3688 -16.6342C21.4056 -14.6235 17.4033 -14.6395 14.4533 -16.9623ZM68.1685 25.2013C68.8953 27.1526 68.9518 29.3139 68.1794 31.3164L203.835 90.0765C204.142 89.4897 204.478 88.9514 204.893 88.4319C205.356 87.8829 205.878 87.4307 206.459 87.0754L151.114 -2.06824C147.973 -0.348267 143.998 -0.646973 141.164 -3.10693C140.281 -3.89819 139.514 -4.82666 139.019 -5.85486L68.1685 25.2013ZM67.7973 32.2155C67.4905 32.8022 67.1352 33.4185 66.6238 33.9972C65.7653 34.9877 64.7103 35.7656 63.5556 36.2716L121.26 185.457C124.134 184.499 127.439 185.007 129.977 186.983L205.453 99.8008C203.087 97.4539 202.339 94.0518 203.434 91.0535L67.7489 32.245L67.7973 32.2155ZM115.901 189.863L14.3627 127.154C14.1797 127.399 14.0262 127.692 13.8433 127.937C13.1004 128.79 12.2392 129.45 11.3671 129.983L38.5956 184.008C41.1284 182.926 44.1401 183.282 46.3956 185.23C48.0724 186.667 48.9849 188.705 48.9823 190.769L95.0177 192.711L114.811 193.524C114.908 192.267 115.287 191.037 115.901 189.863ZM37.4279 197.232C37.1345 197.078 36.86 196.847 36.6151 196.664C36.2328 196.365 35.9474 196.007 35.6622 195.649L-73.546 271.84C-71.4142 275.328 -71.5325 279.925 -74.3882 283.201C-74.7838 283.642 -75.2091 284.035 -75.6155 284.35L-42.4417 329.486C-40.2132 328.124 -37.4302 327.887 -35.0159 329.006L-23.6556 308.29L37.4575 197.28L37.4279 197.232ZM22.4741 203.576L35.0323 194.836C33.9369 193.044 33.6757 190.874 34.2732 188.912L13.3143 181.293C13.0183 182.007 12.6146 182.653 12.1032 183.231C9.34448 186.448 4.6156 186.876 1.31305 184.303L-74.9725 270.05C-74.6684 270.33 -74.3643 270.61 -74.1085 270.919L22.5225 203.546L22.4741 203.576ZM13.6373 180.297L34.5962 187.917C34.9219 187.252 35.2286 186.665 35.7104 186.038C36.2406 185.381 36.9377 184.888 37.6159 184.474L10.3875 130.448C9.28125 130.925 8.18317 131.197 7.01501 131.245L6.59338 170.296C8.211 170.439 9.8125 170.99 11.1071 172.129C13.5295 174.242 14.364 177.458 13.5593 180.279L13.6373 180.297ZM116.517 189.021C116.7 188.776 116.854 188.482 117.037 188.237C117.963 187.139 119.114 186.302 120.347 185.815L62.6432 36.6296C60.4873 37.3483 58.1295 37.1922 56.0275 36.1479L11.7812 113.893C12.1338 114.143 12.5052 114.315 12.839 114.644C16.3003 117.586 17.1295 122.535 15.0087 126.36L116.547 189.069L116.517 189.021ZM53.9119 34.6462C51.8906 32.7541 50.9539 30.1326 51.196 27.5891L-9.44623 19.6023C-9.66962 20.87 -10.2537 22.0919 -11.131 23.1605C-12.1726 24.396 -13.4807 25.1953 -14.899 25.5964L-0.877502 90.0223C1.53406 89.6132 4.08026 90.1864 6.17694 91.7662L53.99 34.665L53.9119 34.6462ZM-15.9595 25.712C-18.0992 26.0216 -20.3628 25.4755 -22.1769 23.9225C-23.4124 22.8809 -24.2117 21.5728 -24.6424 20.106L-47.4177 24.9753C-47.1593 26.8137 -47.6599 28.7166 -48.9329 30.2266C-49.1644 30.5011 -49.377 30.6976 -49.6381 30.9237L-36.7803 48.1516L-4.66437 91.3386C-3.79236 90.8056 -2.96875 90.3023 -2.04559 90.0708L-16.0671 25.6448L-15.9595 25.712ZM-24.7958 19.2015C-25.1054 17.0618 -24.5591 14.7983 -23.0546 13.0138C-22.8231 12.7393 -22.5621 12.5132 -22.301 12.2871L-31.019 1.17944C-33.8074 3.14966 -37.4759 3.46204 -40.555 2.01685L-50.3569 20.3838C-50.3569 20.3838 -49.8187 20.7202 -49.5737 20.9032C-48.5536 21.8102 -47.8726 22.9246 -47.4931 24.09L-24.7178 19.2205L-24.7958 19.2015ZM-29.2696 -0.421997C-29.5684 -0.0397949 -29.9263 0.245605 -30.2842 0.530884L-21.5662 11.6384C-18.8452 9.77588 -15.174 9.79468 -12.4205 11.9047L13.6298 -17.6566C12.7657 -18.5259 12.1144 -19.5917 11.6864 -20.7275L-27.3239 -8.99707C-26.6186 -6.10107 -27.2161 -2.94128 -29.3288 -0.518921L-29.2696 -0.421997ZM11.4549 -21.6508C10.86 -24.1484 11.4117 -26.9476 13.2446 -29.0659C13.5245 -29.37 13.8528 -29.7037 14.1624 -29.9595L1.19971 -46.9236L-15.8865 -69.2196C-17.0007 -68.5386 -18.2549 -68.3043 -19.5226 -68.5277L-33.5333 -15.7822C-32.3813 -15.4216 -31.2563 -14.7783 -30.2173 -13.9493C-28.9227 -12.8109 -27.986 -11.3872 -27.4773 -9.90149L11.533 -21.632L11.4549 -21.6508ZM160.571 -143.924C159.099 -144.155 157.673 -144.747 156.437 -145.789C156.3 -145.905 156.182 -146.098 156.044 -146.214L26.1879 -28.7917C27.5256 -27.1472 28.0775 -25.1555 27.9968 -23.11L33.7566 -22.5045L138.254 -11.2433C138.504 -12.7936 139.145 -14.2496 140.235 -15.5146C142.116 -17.6625 144.757 -18.6774 147.367 -18.5428L160.582 -143.797L160.571 -143.924ZM352.733 -68.5935L169.494 -148.378C169.187 -147.792 168.85 -147.253 168.387 -146.704C166.603 -144.616 164.06 -143.66 161.527 -143.776L148.312 -18.5212C149.862 -18.271 151.367 -17.66 152.632 -16.5701C153.927 -15.4316 154.756 -14.0751 155.294 -12.5409L352.364 -63.6439C352.019 -65.2965 352.181 -66.9921 352.733 -68.5935ZM358.242 -56.8561C357.217 -57.2274 356.229 -57.755 355.376 -58.4978C354.033 -59.6067 353.115 -61.1085 352.625 -62.6722L155.555 -11.5693C155.9 -9.91675 155.738 -8.22119 155.108 -6.63855L313.238 66.4667C313.545 65.8799 313.93 65.312 314.344 64.7925C316.64 62.1252 320.196 61.0836 323.396 61.8559L358.213 -56.9045L358.242 -56.8561ZM312.886 67.4141L154.756 -5.69104C154.497 -5.13391 154.083 -4.6145 153.717 -4.12463C153.206 -3.5459 152.635 -3.06421 152.083 -2.6604L207.428 86.4832C210.375 84.8817 214.146 85.1724 216.813 87.4681C218.108 88.6066 218.996 90.06 219.486 91.6237L312.399 72.17C312.162 70.5847 312.353 68.9375 312.964 67.4329L312.886 67.4141ZM320.524 79.9132C318.702 79.7625 316.886 79.0763 315.376 77.8032C313.895 76.5786 312.967 74.9503 312.485 73.182L219.524 92.6653C219.844 94.9315 219.279 97.2731 217.707 99.1653L311.559 186.534C313.018 185.111 314.969 184.384 316.926 184.319L320.506 79.9913L320.524 79.9132ZM212.424 102.062L218.393 184.451C220.301 184.416 222.215 185.043 223.754 186.364C225.461 187.85 226.451 189.906 226.556 192.038L309.051 191.794C309.164 190.128 309.764 188.496 310.843 187.105L217.021 99.7844C215.726 101.041 214.106 101.765 212.394 102.013L212.424 102.062ZM523.401 165.264C520.704 162.919 519.692 159.412 520.356 156.145L452.369 137.01C452.016 137.957 451.537 138.916 450.843 139.739C450.496 140.151 450.138 140.436 449.761 140.8L501.482 213.127C503.711 211.765 506.375 211.334 508.836 212.093L525.71 166.647C524.889 166.284 524.087 165.842 523.371 165.215L523.401 165.264ZM530.391 167.446C529.126 167.554 527.917 167.427 526.717 167.096L509.813 212.494C510.604 212.809 511.357 213.28 512.044 213.859C515.78 217.032 516.205 222.628 513.032 226.363L516.299 229.424L538.968 250.837C540.098 249.746 541.465 249.044 542.943 248.74L530.361 167.398L530.391 167.446ZM476.189 266.247L549.531 307.861C549.781 307.508 549.953 307.137 550.233 306.833C551.487 305.401 553.086 304.424 554.776 303.923L551.603 289.693L546.106 265.239C543.743 265.618 541.245 265.015 539.294 263.347C537.646 261.958 536.715 259.998 536.446 258.034L477.12 262.218C477.161 263.59 476.87 264.966 476.237 266.217L476.189 266.247ZM477.034 261.206L530.56 257.439L536.311 257.051C536.325 255.113 536.922 253.151 538.214 251.563L512.278 227.09C509.07 230.115 504.096 230.361 500.597 227.575L474.52 256.221C475.914 257.631 476.727 259.397 476.986 261.235L477.034 261.206ZM395.369 175.704C395.369 175.704 394.944 176.097 394.731 176.294L462.925 255.322C466.079 252.862 470.617 252.884 473.871 255.486L499.949 226.84C497.494 224.348 496.754 220.741 497.965 217.606L491.613 214.834L396.591 173.893C396.265 174.558 395.881 175.126 395.447 175.723L395.369 175.704ZM396.338 165.53C397.603 167.818 397.859 170.523 396.944 172.946L498.366 216.629C498.691 215.964 499.076 215.396 499.539 214.847C499.886 214.435 500.312 214.042 500.718 213.727L463.318 161.459L448.996 141.4C445.944 143.265 441.961 143.171 439.049 140.692C438.529 140.278 438.077 139.756 437.703 139.252L396.368 165.579L396.338 165.53ZM395.805 164.658L437.14 138.332C435.875 136.044 435.716 133.28 436.788 130.895L329.272 75.499C329.003 75.9296 328.685 76.3898 328.338 76.8016C327.923 77.3211 327.45 77.7437 326.898 78.1475L383.906 162.282C387.103 160.328 391.302 160.557 394.322 163.103C394.871 163.566 395.353 164.136 395.757 164.688L395.805 164.658ZM324.777 189.435L379.896 172.052C379.231 169.331 379.791 166.328 381.758 163.994C382.173 163.475 382.646 163.052 383.15 162.678L326.142 78.5431C324.785 79.3721 323.192 79.8135 321.615 79.8459L318.035 184.174C319.652 184.316 321.235 184.946 322.53 186.085C323.598 186.962 324.309 188.125 324.796 189.357L324.777 189.435ZM251.069 222.238C251.48 222.586 251.717 222.973 251.954 223.361L309.664 195.411C309.317 194.625 309.115 193.75 309.04 192.865L226.546 193.109C226.462 194.824 225.843 196.533 224.638 197.935C224.473 198.102 224.358 198.239 224.193 198.406L245.196 222.101C246.948 220.831 249.343 220.831 251.098 222.287L251.069 222.238ZM133.49 196.215L243.441 224.238C243.651 223.711 243.89 223.232 244.286 222.79C244.334 222.761 244.383 222.731 244.431 222.702L223.488 199.103C220.528 201.445 216.194 201.431 213.174 198.885C211.468 197.4 210.507 195.392 210.335 193.368L133.654 194.85C133.619 195.337 133.584 195.824 133.501 196.341L133.49 196.215ZM133.684 193.701L210.364 192.219C210.418 190.456 211.037 188.747 212.262 187.266C213.602 185.649 215.465 184.776 217.351 184.488L211.353 102.051C209.571 102.075 207.765 101.515 206.188 100.35L130.712 187.532C132.459 189.193 133.46 191.375 133.576 193.633L133.684 193.701ZM116.784 200.236C115.495 198.562 114.816 196.581 114.819 194.517L48.9608 191.714C48.7778 193.157 48.2341 194.553 47.1926 195.789C44.9452 198.427 41.2794 199.07 38.308 197.692L-34.2433 329.399C-33.9204 329.601 -33.6271 329.755 -33.3525 329.986C-33.1856 330.15 -33.0968 330.296 -32.9299 330.46L116.754 200.188L116.784 200.236ZM-40.9664 343.223C-41.8061 342.938 -42.6862 342.478 -43.4022 341.85C-45.3536 340.182 -46.2203 337.784 -46.0643 335.426L-113.064 326.4C-113.317 327.62 -113.852 328.812 -114.681 329.851C-115.492 330.812 -116.479 331.482 -117.567 331.88L-76.4188 453.322C-75.0488 452.951 -73.5684 452.978 -72.1446 453.239L-40.918 343.193L-40.9664 343.223ZM-92.2877 456.1L-119.335 332.362C-120.842 332.618 -122.392 332.368 -123.752 331.668L-197.407 460.59C-197.084 460.791 -196.761 460.993 -196.457 461.273C-194.613 462.875 -193.563 465.028 -193.35 467.227L-97.5198 462.891C-97.5037 461.284 -96.952 459.683 -95.7947 458.31C-94.8204 457.182 -93.6093 456.442 -92.2689 456.022L-92.2877 456.1ZM-83.0181 462.013L-82.9212 461.954C-82.9185 459.89 -82.2538 457.82 -80.7977 456.065C-79.8234 454.937 -78.6419 454.149 -77.3608 453.632L-118 333.676L-91.238 455.858C-89.2248 455.559 -87.1173 456.068 -85.4405 457.505C-84.0382 458.711 -83.2657 460.301 -82.9696 461.984L-83.0181 462.013ZM-96.435 466.952C-96.9976 466.032 -97.3664 464.993 -97.4525 463.981L-193.283 468.317C-193.315 470.333 -193.98 472.402 -195.417 474.079C-196.392 475.207 -197.622 476.025 -198.951 476.572L-184.532 519.328C-181.568 518.516 -178.282 519.102 -175.782 521.234C-175.34 521.629 -174.869 522.073 -174.525 522.528L-96.4835 466.982L-96.435 466.952ZM-185.474 519.638L-199.942 476.911C-200.962 477.202 -202.003 477.239 -203.026 477.199L-207.846 513.082C-206.47 513.373 -205.122 513.946 -204.024 514.872C-201.661 516.888 -200.759 519.996 -201.281 522.844L-191.064 525.516C-190.703 524.364 -190.06 523.239 -189.279 522.23C-188.238 520.995 -186.959 520.147 -185.552 519.619L-185.474 519.638ZM-188.157 535.717C-190.902 533.402 -191.944 529.847 -191.231 526.55L-201.448 523.878C-201.771 524.873 -202.298 525.861 -203.041 526.714C-204.198 528.087 -205.73 528.956 -207.401 529.379L-186.59 641.824C-186.59 641.824 -186.036 641.751 -185.705 641.748L-182.715 537.98C-184.663 537.841 -186.558 537.135 -188.127 535.766L-188.157 535.717ZM-241.506 703.199L-233.346 693.687C-234.455 692.635 -235.195 691.424 -235.566 690.054L-242.088 691.577L-301.997 705.367C-301.936 705.795 -301.903 706.175 -301.89 706.632L-256.062 709.433C-255.852 707.708 -255.155 706.018 -253.93 704.537C-250.757 700.801 -245.317 700.338 -241.477 703.248L-241.506 703.199ZM-243.395 718.727L-219.55 783.004C-219.151 782.894 -218.723 782.832 -218.325 782.722L-227.212 695.994C-229.09 696.077 -231.023 695.528 -232.63 694.314L-240.79 703.826C-237.297 707.148 -236.96 712.598 -240.133 716.334C-241.059 717.432 -242.192 718.191 -243.444 718.756L-243.395 718.727ZM-221.622 681.731L-192.511 656.089C-195.06 652.789 -195.079 648.076 -192.272 644.83C-191.973 644.448 -191.664 644.192 -191.306 643.907L-287.113 519.805C-287.355 519.953 -287.646 520.13 -287.888 520.278L-229.906 679.608C-227.244 678.846 -224.27 679.358 -222.044 681.258C-221.878 681.422 -221.711 681.586 -221.544 681.75L-221.622 681.731ZM-47.8566 668.493L-175.752 535.655C-177.434 537.149 -179.56 537.916 -181.721 537.972L-184.712 641.74C-182.938 641.921 -181.151 642.558 -179.719 643.813C-177.463 645.761 -176.379 648.625 -176.677 651.403L-48.9978 670.654C-48.8094 669.874 -48.4649 669.131 -47.9347 668.474L-47.8566 668.493ZM-214.379 782.972C-213.101 783.322 -211.927 783.935 -210.859 784.813C-210.388 785.257 -209.946 785.652 -209.572 786.156L-48.3624 674.525C-48.8954 673.653 -49.03 672.67 -48.96 671.696L-176.718 652.425C-177.008 653.801 -177.63 655.179 -178.623 656.385C-180.706 658.855 -183.834 659.835 -186.778 659.372L-213.012 777.478L-214.253 782.961L-214.379 782.972ZM-187.92 659.138C-189.12 658.807 -190.264 658.242 -191.284 657.335C-191.451 657.171 -191.647 656.958 -191.814 656.794L-220.925 682.437C-218.494 685.543 -218.527 689.954 -221.14 693.082C-222.51 694.651 -224.265 695.59 -226.2 695.908L-217.265 782.606C-216.632 782.552 -215.989 782.625 -215.316 782.746L-187.842 659.157L-187.92 659.138ZM-292.344 765.476C-290.813 767.002 -290.153 769.061 -290.565 771.11L-225.597 788.896C-225.255 787.822 -224.68 786.805 -223.869 785.844C-222.944 784.746 -221.762 783.957 -220.511 783.392L-244.356 719.114C-247.037 719.954 -250.059 719.472 -252.479 717.691L-292.344 765.476ZM-253.195 717.063C-255.079 715.287 -256.102 712.851 -256.083 710.378L-301.911 707.577C-302.113 709.098 -302.705 710.524 -303.747 711.76C-304.837 713.025 -306.193 713.854 -307.66 714.285L-297.461 763.746C-295.924 763.539 -294.411 763.945 -293.06 764.849L-253.195 717.063ZM-614.526 1005.89L-588.144 1015.85C-587.781 1015.03 -587.339 1014.23 -586.712 1013.52C-585.671 1012.28 -584.392 1011.43 -582.985 1010.9L-598.58 964.808C-599.727 965.109 -600.935 964.983 -602.02 964.515L-618.47 995.195C-618.039 995.465 -617.638 995.685 -617.275 996.062C-614.362 998.541 -613.366 1002.46 -614.478 1005.86L-614.526 1005.89ZM-622.675 954.78L-646.224 1014.02C-645.481 1014.36 -644.835 1014.77 -644.178 1015.3C-643.767 1015.65 -643.374 1016.07 -643.029 1016.53L-631.111 1008.05C-633.232 1004.68 -633.074 1000.26 -630.363 997.074C-628.482 994.927 -625.871 993.863 -623.271 993.871L-620.831 955.184C-621.474 955.111 -622.099 954.96 -622.704 954.732L-622.675 954.78ZM-604.801 956.699L-612.321 951.58C-612.321 951.58 -612.474 951.873 -612.59 952.01C-614.442 954.207 -617.13 955.251 -619.73 955.243L-620.363 964.878L-622.219 993.96C-621.245 994.03 -620.297 994.383 -619.447 994.794L-602.949 964.084C-602.949 964.084 -603.35 963.863 -603.516 963.699C-605.576 961.963 -606.057 958.997 -604.771 956.747L-604.801 956.699ZM-596.126 955.323C-593.938 957.379 -593.677 960.746 -595.644 963.08C-596.174 963.737 -596.901 964.181 -597.609 964.547L-582.013 1010.64C-579.973 1010.06 -577.79 1010.26 -575.836 1011.06L-470.48 793.23C-470.48 793.23 -470.94 792.913 -471.185 792.73L-596.067 955.42L-596.126 955.323ZM-457.79 781.549C-457.472 782.286 -457.252 783.083 -457.109 783.861L-302.94 770.023C-302.914 768.542 -302.478 767.078 -301.485 765.872C-300.674 764.911 -299.609 764.26 -298.492 763.91L-298.917 761.908L-308.739 714.478C-310.879 714.788 -313.221 714.223 -314.957 712.689C-315.643 712.11 -316.165 711.364 -316.609 710.638L-457.79 781.549ZM-308.516 698.838C-307.122 699.051 -305.774 699.624 -304.646 700.598C-303.411 701.64 -302.611 702.948 -302.21 704.366L-235.857 689.034C-236.237 686.671 -235.712 684.154 -233.995 682.173C-233.136 681.183 -232.052 680.453 -230.897 679.947L-288.878 520.618C-289.452 520.768 -290.084 520.822 -290.698 520.798L-308.546 698.79L-308.516 698.838ZM-285.71 518.615C-285.71 518.615 -286.087 518.978 -286.3 519.175L-190.493 643.277C-189.573 642.715 -188.622 642.201 -187.573 641.958L-208.384 529.514C-210.65 529.834 -212.972 529.191 -214.816 527.589C-216.797 525.872 -217.742 523.455 -217.742 521.06L-284.343 515.517C-284.529 516.629 -284.997 517.713 -285.788 518.596L-285.71 518.615ZM-284.225 514.513L-217.624 520.056C-217.422 518.535 -216.781 517.079 -215.74 515.844C-213.955 513.755 -211.363 512.77 -208.771 512.982L-203.952 477.099C-205.454 476.819 -206.91 476.179 -208.145 475.137C-208.939 474.491 -209.491 473.697 -209.994 472.874L-284.664 512.053C-284.316 512.839 -284.193 513.695 -284.195 514.562L-284.225 514.513ZM-285.915 510.223C-285.659 510.532 -285.404 510.842 -285.226 511.133L-210.557 471.953C-211.994 468.839 -211.548 465.106 -209.233 462.361C-209.05 462.116 -208.759 461.938 -208.547 461.742L-218.624 449.934C-222.021 452.543 -226.889 452.524 -230.262 449.727L-285.837 510.242L-285.915 510.223ZM-217.766 435.769C-214.261 439.217 -213.944 444.745 -217.214 448.54C-217.397 448.785 -217.687 448.963 -217.87 449.208L-207.793 461.015C-205.064 458.948 -201.347 458.606 -198.287 460.129L-124.632 331.208C-124.632 331.208 -124.955 331.006 -125.062 330.938L-217.736 435.818L-217.766 435.769ZM-112.897 325.367L-45.8974 334.392C-45.6741 333.125 -45.1385 331.932 -44.2315 330.912C-43.9516 330.608 -43.6232 330.274 -43.3137 330.019L-63.1749 302.964L-76.4579 284.931C-79.7415 287.071 -84.0748 287.058 -87.3854 284.69L-115.322 319.33C-113.557 320.912 -112.779 323.165 -112.897 325.367ZM-156.459 220.771L-122.503 317.597C-120.385 317.034 -118.035 317.395 -116.135 318.762L-88.1497 284.092C-91.8479 280.763 -92.3998 275.178 -89.4528 271.181L-153.205 218.583C-154.112 219.603 -155.226 220.284 -156.429 220.819L-156.459 220.771ZM-156.987 203.793C-155.961 204.164 -154.974 204.692 -154.042 205.454C-150.414 208.56 -149.854 213.94 -152.637 217.77L-88.8849 270.368L-154.807 202.461C-155.493 203.08 -156.22 203.524 -157.006 203.871L-156.987 203.793ZM-153.773 201.43C-153.773 201.43 -153.967 201.548 -154.034 201.656L-88.1125 269.563C-84.6513 266.517 -79.4432 266.328 -75.7773 269.278L0.508301 183.53C-0.689453 182.333 -1.37317 180.887 -1.65851 179.332L-151.615 195.054C-151.529 197.263 -152.201 199.538 -153.754 201.352L-153.773 201.43ZM-151.72 194.12L-1.68542 178.416C-1.76892 176.538 -1.17145 174.576 0.168884 172.958C1.65454 171.252 3.64355 170.369 5.74561 170.215L6.11877 131.194C4.12164 131.084 2.1972 130.33 0.57959 128.99C-0.410889 128.131 -1.15918 127.125 -1.73248 126.078L-152.172 192.4C-151.973 192.943 -151.822 193.517 -151.72 194.12ZM-152.608 191.469L-2.19812 125.098C-3.38245 121.962 -2.92499 118.356 -0.610352 115.61C0.546997 114.238 2.04877 113.32 3.61249 112.83L2.40662 108.244C-0.373657 108.812 -3.28052 108.193 -5.61407 106.225C-6.27081 105.695 -6.81189 105.028 -7.22638 104.349L-152.667 191.372C-152.667 191.372 -152.638 191.42 -152.608 191.469ZM-154.783 188.672C-154.174 189.232 -153.663 189.851 -153.2 190.5L-7.75928 103.477C-9.48999 100.21 -9.15369 96.0784 -6.6076 93.0585C-6.26038 92.6467 -5.85394 92.3317 -5.47717 91.9684L-50.4509 31.5535C-52.4857 32.7971 -54.9968 32.9343 -57.1285 31.8417L-155.44 188.142C-155.44 188.142 -155.009 188.411 -154.764 188.594L-154.783 188.672ZM-175.094 38.393C-176.251 39.7657 -177.812 40.5867 -179.465 40.9312L-161.286 186.524C-159.563 186.403 -157.875 186.769 -156.301 187.604L-57.9413 31.2738C-57.9413 31.2738 -58.1862 31.0908 -58.2939 31.0236C-59.5885 29.8851 -60.3502 28.4209 -60.5872 26.8356L-173.245 33.4702C-173.25 35.2036 -173.84 36.9611 -175.045 38.3634L-175.094 38.393ZM-173.331 32.4583L-60.6733 25.8236C-60.6464 24.3433 -60.162 22.8495 -59.072 21.5845C-57.1046 19.2509 -53.9151 18.699 -51.2963 19.8267L-41.4943 1.45972C-41.925 1.19055 -42.3557 0.921387 -42.7675 0.574219C-44.1401 -0.58313 -45.058 -2.08496 -45.5775 -3.69714L-173.336 31.7961C-173.336 31.7961 -173.226 32.1945 -173.234 32.399L-173.331 32.4583ZM-174.26 29.6321C-174.023 30.0197 -173.834 30.437 -173.694 30.8837L-45.887 -4.63904C-46.4846 -7.46777 -45.906 -10.5496 -43.8417 -12.9424C-41.4786 -15.7174 -37.9232 -16.759 -34.5776 -16.0756L-20.5186 -68.8507C-21.0945 -69.031 -21.6813 -69.3379 -22.1227 -69.7335C-22.3972 -69.965 -22.4968 -70.2367 -22.7229 -70.4978L-174.241 29.5541L-174.26 29.6321ZM-179.987 25.8131C-178.545 25.9961 -177.118 26.5881 -175.912 27.5813C-175.5 27.9285 -175.107 28.3538 -174.793 28.7601L-23.3716 -71.2327C-24.2814 -72.9391 -24.1522 -75.0142 -23.0164 -76.6399L-162.791 -192.769C-164.471 -190.944 -166.791 -190.059 -169.108 -190.04L-180.017 25.7646L-179.987 25.8131ZM-162.116 -193.515L-22.4189 -77.4043C-21.7623 -78.0718 -20.9575 -78.4971 -20.1124 -78.7474L-34.0617 -159.387C-35.8327 -159.236 -37.6575 -159.718 -39.1675 -160.991C-41.0892 -162.611 -41.8295 -165.02 -41.4877 -167.292L-43.8293 -167.857L-160.765 -196.203C-161.069 -195.286 -161.529 -194.406 -162.145 -193.563L-162.116 -193.515ZM-160.568 -197.188L-41.2429 -168.306C-40.9576 -169.146 -40.5161 -169.948 -39.9375 -170.635C-39.9375 -170.635 -39.8891 -170.664 -39.8406 -170.694L-110.884 -243.389C-114.327 -240.42 -119.438 -240.291 -123.007 -243.3C-123.066 -243.397 -123.096 -243.445 -123.125 -243.494L-162.566 -204.485C-160.786 -202.445 -160.073 -199.753 -160.539 -197.14L-160.568 -197.188ZM-291.383 -307.149L-175.364 -204.848C-172.147 -208.078 -166.999 -208.363 -163.459 -205.403C-163.43 -205.354 -163.37 -205.258 -163.341 -205.209L-123.901 -244.218C-126.013 -246.586 -126.721 -249.813 -125.879 -252.79L-290.586 -308.567C-290.826 -308.088 -291.065 -307.609 -291.383 -307.149ZM-290.234 -309.515L-125.478 -253.767C-125.125 -254.715 -124.636 -255.547 -123.99 -256.34C-122.254 -258.4 -119.769 -259.452 -117.307 -259.56L-116.119 -336.009C-117.532 -336.143 -118.899 -336.639 -120.027 -337.613C-121.155 -338.587 -121.925 -339.847 -122.248 -341.246L-290.078 -311.873C-290.013 -311.114 -290.075 -310.344 -290.263 -309.563L-290.234 -309.515ZM-122.431 -342.199C-122.611 -344.019 -122.11 -345.921 -120.837 -347.431C-119.468 -349 -117.575 -349.824 -115.667 -349.859L-115.28 -357.282C-117.005 -357.492 -118.666 -358.141 -120.068 -359.347C-121.303 -360.388 -122.103 -361.696 -122.601 -363.056L-288.501 -313.103L-122.509 -342.218L-122.431 -342.199ZM-294.818 -317.56C-293.929 -317.304 -293.127 -316.863 -292.363 -316.265C-291.51 -315.522 -290.869 -314.583 -290.5 -313.544L-122.813 -364.057C-123.276 -365.903 -123.107 -367.803 -122.343 -369.601L-261.252 -438.15C-261.521 -437.72 -261.791 -437.289 -262.089 -436.907C-263.989 -434.681 -266.767 -433.782 -269.429 -434.218L-294.721 -317.619L-294.818 -317.56ZM-323.589 -399.588C-321.46 -396.43 -321.581 -392.164 -324.176 -389.115C-324.986 -388.154 -325.944 -387.435 -327.02 -386.911L-298.742 -317.557C-297.8 -317.866 -296.788 -317.952 -295.784 -317.834L-270.492 -434.433C-271.614 -434.745 -272.602 -435.273 -273.534 -436.034C-273.838 -436.314 -274.093 -436.624 -274.398 -436.904L-323.637 -399.558L-323.589 -399.588ZM-332.363 -403.275C-329.855 -403.743 -327.231 -403.151 -325.142 -401.367C-324.76 -401.068 -324.475 -400.71 -324.219 -400.4L-275.027 -437.716C-276.112 -439.383 -276.586 -441.355 -276.338 -443.237L-330.139 -454.074L-337.113 -455.468C-337.452 -454.063 -338.103 -452.733 -339.126 -451.576C-340.35 -450.096 -341.949 -449.119 -343.688 -448.589L-332.46 -403.215L-332.363 -403.275ZM-355.797 -463.612C-356.656 -462.621 -357.633 -461.825 -358.758 -461.27L-333.733 -402.903C-333.733 -402.903 -333.491 -403.051 -333.365 -403.062L-344.544 -448.465C-347.353 -447.945 -350.338 -448.583 -352.623 -450.58C-356.359 -453.753 -357.016 -459.074 -354.478 -463.087L-355.566 -463.887C-355.566 -463.887 -355.681 -463.749 -355.749 -463.642L-355.797 -463.612ZM-361.355 -478.913C-359.727 -478.644 -358.193 -477.985 -356.82 -476.827C-353.222 -473.77 -352.576 -468.575 -355.046 -464.67L-353.959 -463.87C-353.959 -463.87 -353.873 -464.056 -353.776 -464.115C-351.943 -466.234 -349.44 -467.364 -346.899 -467.453L-346.391 -608.164L-361.404 -478.883L-361.355 -478.913ZM-340.459 -612.721C-341.732 -611.211 -343.498 -610.398 -345.347 -610.266L-345.857 -467.491C-345.37 -467.456 -344.932 -467.391 -344.415 -467.308L-302.999 -622.307C-304.151 -622.667 -305.276 -623.311 -306.315 -624.139C-307.61 -625.278 -308.517 -626.653 -309.055 -628.187L-338.923 -618.917C-338.438 -616.818 -338.906 -614.535 -340.411 -612.751L-340.459 -612.721ZM-345.471 -624.297C-343.961 -624.222 -342.438 -623.689 -341.202 -622.647C-340.32 -621.856 -339.649 -620.868 -339.232 -619.859L-309.365 -629.129C-310.1 -632.074 -309.483 -635.312 -307.352 -637.812C-306.676 -638.558 -305.912 -639.158 -305.166 -639.68L-347.971 -715.926C-347.971 -715.926 -348.068 -715.867 -348.116 -715.838L-345.471 -624.297Z" fill="#E0E2E1"/>
</g>
</g>
<defs>
<clipPath id="clip0_13365_261">
<rect width="1925" height="884" fill="white"/>
</clipPath>
<clipPath id="clip1_13365_261">
<rect width="610" height="322" fill="white" transform="matrix(-1 0 0 -1 610 322)"/>
</clipPath>
</defs>
</svg>
